<svg width="340" height="335" viewBox="0 0 340 335" fill="none" xmlns="http://www.w3.org/2000/svg">
<rect y="0.316895" width="340" height="334" rx="23" fill="#FFFAF4"/>
<mask id="mask0_41_20" style="mask-type:alpha" maskUnits="userSpaceOnUse" x="0" y="0" width="337" height="331">
<rect width="337" height="330.229" rx="23" fill="#D9D9D9"/>
</mask>
<g mask="url(#mask0_41_20)">
<path d="M242.664 227.342C354.044 102.016 420.301 128.297 460.241 168.628L438.657 350.314L-108.524 367.268L-128.086 234.888C-37.0889 292.275 144.537 337.755 242.664 227.342Z" fill="#FFE6CE"/>
</g>
<path d="M40.676 79.3169L51.908 54.1169H57.668L68.936 79.3169H62.816L53.6 57.0689H55.904L46.652 79.3169H40.676ZM46.292 73.9169L47.84 69.4889H60.8L62.384 73.9169H46.292ZM79.2947 79.6049C77.4707 79.6049 75.8267 79.1969 74.3627 78.3809C72.8987 77.5409 71.7347 76.3769 70.8707 74.8889C70.0307 73.4009 69.6107 71.6489 69.6107 69.6329C69.6107 67.5929 70.0307 65.8289 70.8707 64.3409C71.7347 62.8529 72.8987 61.7009 74.3627 60.8849C75.8267 60.0689 77.4707 59.6609 79.2947 59.6609C80.9267 59.6609 82.3547 60.0209 83.5787 60.7409C84.8027 61.4609 85.7507 62.5529 86.4227 64.0169C87.0947 65.4809 87.4307 67.3529 87.4307 69.6329C87.4307 71.8889 87.1067 73.7609 86.4587 75.2489C85.8107 76.7129 84.8747 77.8049 83.6507 78.5249C82.4507 79.2449 80.9987 79.6049 79.2947 79.6049ZM80.2667 74.9969C81.1787 74.9969 82.0067 74.7809 82.7507 74.3489C83.4947 73.9169 84.0827 73.3049 84.5147 72.5129C84.9707 71.6969 85.1987 70.7369 85.1987 69.6329C85.1987 68.5049 84.9707 67.5449 84.5147 66.7529C84.0827 65.9609 83.4947 65.3489 82.7507 64.9169C82.0067 64.4849 81.1787 64.2689 80.2667 64.2689C79.3307 64.2689 78.4907 64.4849 77.7467 64.9169C77.0027 65.3489 76.4027 65.9609 75.9467 66.7529C75.5147 67.5449 75.2987 68.5049 75.2987 69.6329C75.2987 70.7369 75.5147 71.6969 75.9467 72.5129C76.4027 73.3049 77.0027 73.9169 77.7467 74.3489C78.4907 74.7809 79.3307 74.9969 80.2667 74.9969ZM85.3427 79.3169V75.3569L85.4507 69.5969L85.0907 63.8729V52.6049H90.7067V79.3169H85.3427ZM100.549 75.3569L100.693 68.5169L109.729 59.9489H116.425L107.749 68.7689L104.833 71.1449L100.549 75.3569ZM95.9045 79.3169V52.6049H101.521V79.3169H95.9045ZM110.341 79.3169L103.789 71.1809L107.317 66.8249L117.145 79.3169H110.341ZM131.199 79.3169V75.5369L130.839 74.7089V67.9409C130.839 66.7409 130.467 65.8049 129.723 65.1329C129.003 64.4609 127.887 64.1249 126.375 64.1249C125.343 64.1249 124.323 64.2929 123.315 64.6289C122.331 64.9409 121.491 65.3729 120.795 65.9249L118.779 62.0009C119.835 61.2569 121.107 60.6809 122.595 60.2729C124.083 59.8649 125.595 59.6609 127.131 59.6609C130.083 59.6609 132.375 60.3569 134.007 61.7489C135.639 63.1409 136.455 65.3129 136.455 68.2649V79.3169H131.199ZM125.295 79.6049C123.783 79.6049 122.487 79.3529 121.407 78.8489C120.327 78.3209 119.499 77.6129 118.923 76.7249C118.347 75.8369 118.059 74.8409 118.059 73.7369C118.059 72.5849 118.335 71.5769 118.887 70.7129C119.463 69.8489 120.363 69.1769 121.587 68.6969C122.811 68.1929 124.407 67.9409 126.375 67.9409H131.523V71.2169H126.987C125.667 71.2169 124.755 71.4329 124.251 71.8649C123.771 72.2969 123.531 72.8369 123.531 73.4849C123.531 74.2049 123.807 74.7809 124.359 75.2129C124.935 75.6209 125.715 75.8249 126.699 75.8249C127.635 75.8249 128.475 75.6089 129.219 75.1769C129.963 74.7209 130.503 74.0609 130.839 73.1969L131.703 75.7889C131.295 77.0369 130.551 77.9849 129.471 78.6329C128.391 79.2809 126.999 79.6049 125.295 79.6049ZM141.537 79.3169V59.9489H146.901V65.4209L146.145 63.8369C146.721 62.4689 147.645 61.4369 148.917 60.7409C150.189 60.0209 151.737 59.6609 153.561 59.6609V64.8449C153.321 64.8209 153.105 64.8089 152.913 64.8089C152.721 64.7849 152.517 64.7729 152.301 64.7729C150.765 64.7729 149.517 65.2169 148.557 66.1049C147.621 66.9689 147.153 68.3249 147.153 70.1729V79.3169H141.537Z" fill="#004B40"/>
<path d="M201.824 294.179L201.454 294.033C212.111 266.689 212.691 252.096 212.729 251.954L213.135 251.968C213.123 252.117 212.511 266.758 201.824 294.179Z" fill="#992B2B"/>
<path d="M202.992 294.473L202.622 294.327C213.279 266.983 213.859 252.39 213.897 252.248L214.3 252.271C214.291 252.411 213.688 267.054 202.992 294.473Z" fill="#992B2B"/>
<path d="M199.757 293.302L199.387 293.155C210.046 265.802 210.987 250.926 210.999 250.777L211.402 250.799C211.39 250.949 210.444 265.88 199.757 293.302Z" fill="#992B2B"/>
<path d="M190.008 288.387L189.626 288.285C189.71 287.974 201.199 257.913 211.321 250.816L211.548 251.143C201.539 258.137 190.127 288.086 190.008 288.387Z" fill="#992B2B"/>
<path d="M190.656 288.561L190.274 288.458C190.358 288.148 201.838 258.084 211.969 250.99L212.196 251.317C202.178 258.309 190.775 288.26 190.656 288.561Z" fill="#992B2B"/>
<path d="M191.569 289.947L191.199 289.8C202.343 259.894 212.487 250.833 212.589 250.737L212.858 251.047C212.803 251.146 202.673 260.154 191.569 289.947Z" fill="#992B2B"/>
<path d="M192.501 290.587L192.111 290.482C203.263 260.579 213.419 251.473 213.509 251.421L213.772 251.72C213.682 251.772 203.605 260.794 192.501 290.587Z" fill="#992B2B"/>
<path d="M198.796 293.301L198.428 293.146C198.561 292.829 211.912 261.288 211.358 251.53L211.765 251.506C212.321 261.36 199.353 292.004 198.796 293.301Z" fill="#992B2B"/>
<path d="M200.281 294.08L199.902 293.931C199.992 293.593 212.766 261.793 212.014 252.067L212.413 252.031C213.178 261.856 200.809 292.747 200.281 294.08Z" fill="#992B2B"/>
<path d="M193.576 290.447L193.208 290.291C193.821 288.857 208.186 255.237 211.676 251.872L211.959 252.166C208.523 255.47 193.727 290.097 193.576 290.447Z" fill="#992B2B"/>
<path d="M197.485 292.227L197.111 292.06C197.225 291.815 208.536 266.749 211.892 252.7L212.273 252.803C208.92 266.88 197.599 291.981 197.485 292.227Z" fill="#992B2B"/>
<path d="M196.848 292.047L196.483 291.882C196.599 291.628 207.902 266.56 211.257 252.511L211.639 252.614C208.286 266.691 196.964 291.792 196.848 292.047Z" fill="#992B2B"/>
<path d="M195.633 291.645L195.252 291.543C200.473 277.88 212.708 250.436 212.84 250.157L213.205 250.322C213.091 250.567 200.85 278 195.633 291.645Z" fill="#992B2B"/>
<path d="M194.985 291.471L194.604 291.369C199.825 277.707 212.069 250.264 212.192 249.983L212.557 250.148C212.443 250.393 200.211 277.829 194.985 291.471Z" fill="#992B2B"/>
<path d="M202.461 294.359L202.067 294.197C213.052 266.941 213.303 252.26 213.339 252.127L213.756 252.134C213.765 252.279 213.479 267.017 202.461 294.359Z" fill="#BC4646"/>
<path d="M200.174 293.414L199.78 293.251C210.763 266.004 211.014 251.324 211.052 251.181L211.469 251.189C211.475 251.342 211.19 266.08 200.174 293.414Z" fill="#BC4646"/>
<path d="M189.34 288.218L188.943 288.064C189.027 287.753 200.865 257.776 211.786 250.893L212.014 251.249C201.199 258.056 189.459 287.916 189.34 288.218Z" fill="#BC4646"/>
<path d="M190.05 288.408L189.662 288.256C189.746 287.946 201.584 257.969 212.496 251.083L212.724 251.439C201.909 258.246 190.169 288.107 190.05 288.408Z" fill="#BC4646"/>
<path d="M190.931 289.7L190.535 289.546C201.991 259.714 212.9 250.82 213.001 250.762L213.265 251.089C213.157 251.174 202.334 259.997 190.931 289.7Z" fill="#BC4646"/>
<path d="M191.834 290.342L191.438 290.188C202.892 260.365 213.812 251.464 213.913 251.406L214.175 251.742C214.045 251.802 203.216 260.613 191.834 290.342Z" fill="#BC4646"/>
<path d="M199.389 293.536L199.006 293.367C199.139 293.051 212.967 261.647 212.101 251.814L212.52 251.775C213.396 261.714 199.964 292.244 199.389 293.536Z" fill="#992B2B"/>
<path d="M200.76 294.208L200.375 294.048C200.463 293.719 213.645 262.028 212.535 252.216L212.957 252.168C214.074 262.096 201.315 292.882 200.76 294.208Z" fill="#BC4646"/>
<path d="M192.846 290.118L192.463 289.949C193.093 288.519 207.991 255.042 211.732 251.735L212.019 252.049C208.35 255.3 193.023 289.775 192.846 290.118Z" fill="#BC4646"/>
<path d="M198.004 292.528L197.624 292.35C197.695 292.083 209.502 267.16 212.804 253.097L213.203 253.204C209.903 267.296 198.12 292.273 198.004 292.528Z" fill="#BC4646"/>
<path d="M195.919 291.75L195.544 291.555C195.671 291.294 208.59 265.555 211.906 251.477L212.314 251.586C208.996 265.673 196.051 291.472 195.919 291.75Z" fill="#BC4646"/>
<path d="M195.598 291.636L195.21 291.484C200.58 277.871 213.297 250.546 213.426 250.276L213.807 250.454C213.686 250.726 200.974 278.034 195.598 291.636Z" fill="#BC4646"/>
<path d="M194.178 291.255L193.79 291.104C199.171 277.484 211.885 250.168 212.006 249.896L212.386 250.074C212.266 250.346 199.554 277.653 194.178 291.255Z" fill="#BC4646"/>
<g style="mix-blend-mode:multiply">
<path d="M271.231 97.6792C271.92 97.6165 272.588 97.4053 273.188 97.0602C273.788 96.7151 274.306 96.2443 274.707 95.6801C274.634 96.0817 274.61 96.4909 274.637 96.8983C274.678 97.5268 274.844 98.1409 275.125 98.7047C275.406 99.2684 275.796 99.7706 276.273 100.182C276.75 100.593 277.304 100.905 277.903 101.1C278.502 101.295 279.134 101.368 279.762 101.316C280.78 101.237 281.745 100.827 282.51 100.15C282.153 100.914 281.999 101.758 282.063 102.599C282.103 103.227 282.268 103.84 282.548 104.404C282.828 104.967 283.218 105.469 283.694 105.88C284.17 106.292 284.724 106.604 285.322 106.798C285.921 106.993 286.552 107.066 287.179 107.014C287.324 107.005 287.454 106.983 287.592 106.963C287.461 107.479 287.414 108.013 287.454 108.544C287.494 109.172 287.659 109.785 287.939 110.349C288.219 110.912 288.609 111.414 289.085 111.825C289.561 112.236 290.115 112.548 290.713 112.743C291.311 112.938 291.943 113.011 292.57 112.959C292.909 112.938 293.244 112.878 293.569 112.78C293.048 113.282 292.645 113.893 292.388 114.569C292.131 115.246 292.027 115.97 292.083 116.692C292.162 117.888 292.691 119.01 293.563 119.833C294.434 120.656 295.585 121.119 296.784 121.129C296.068 121.616 295.494 122.283 295.118 123.062C294.742 123.842 294.578 124.707 294.643 125.57C294.683 126.198 294.849 126.812 295.13 127.376C295.411 127.94 295.801 128.442 296.278 128.853C296.755 129.264 297.31 129.576 297.909 129.771C298.508 129.966 299.139 130.039 299.767 129.987C301.04 129.861 302.213 129.242 303.034 128.261C303.855 127.281 304.259 126.017 304.16 124.742C304.081 123.546 303.552 122.425 302.679 121.603C301.807 120.782 300.656 120.321 299.457 120.314C300.174 119.826 300.75 119.158 301.127 118.377C301.503 117.596 301.667 116.729 301.601 115.864C301.56 115.237 301.394 114.624 301.113 114.061C300.833 113.498 300.443 112.996 299.967 112.586C299.491 112.175 298.938 111.863 298.34 111.667C297.743 111.472 297.112 111.398 296.485 111.449C296.147 111.474 295.812 111.534 295.486 111.628C296.006 111.126 296.41 110.515 296.666 109.838C296.923 109.162 297.028 108.437 296.972 107.716C296.931 107.088 296.767 106.475 296.487 105.911C296.207 105.348 295.817 104.846 295.341 104.435C294.864 104.023 294.311 103.711 293.713 103.517C293.114 103.322 292.483 103.249 291.856 103.301C291.716 103.311 291.577 103.331 291.44 103.361C291.573 102.842 291.62 102.305 291.581 101.771C291.525 100.884 291.22 100.03 290.701 99.3084C290.182 98.5865 289.469 98.0259 288.646 97.6909C287.822 97.3559 286.921 97.2602 286.045 97.4147C285.17 97.5692 284.355 97.9677 283.696 98.5644C284.057 97.7988 284.215 96.9531 284.154 96.1087C284.112 95.4806 283.946 94.8672 283.664 94.304C283.383 93.7408 282.993 93.2392 282.516 92.8281C282.039 92.4171 281.485 92.1049 280.887 91.9097C280.289 91.7145 279.657 91.6401 279.03 91.6909C278.341 91.7555 277.674 91.9675 277.074 92.3124C276.475 92.6573 275.956 93.1272 275.554 93.6901C275.632 93.289 275.655 92.8792 275.624 92.4719C275.584 91.8439 275.419 91.2303 275.139 90.6668C274.859 90.1034 274.469 89.6014 273.993 89.1903C273.516 88.7792 272.963 88.4671 272.365 88.2724C271.766 88.0778 271.135 88.0043 270.508 88.0565C269.233 88.1779 268.058 88.7963 267.236 89.7779C266.413 90.7596 266.011 92.0255 266.115 93.3017C266.161 93.926 266.33 94.535 266.613 95.0935C266.895 95.6521 267.286 96.1492 267.761 96.5561C268.237 96.9631 268.788 97.2718 269.384 97.4646C269.98 97.6574 270.607 97.7303 271.231 97.6792Z" fill="#FFE6BD"/>
<path d="M252.577 97.3431C253.841 97.2202 255.007 96.6097 255.828 95.6412C256.649 94.6727 257.06 93.4225 256.974 92.1558C257.266 93.218 257.92 94.1448 258.823 94.7759C259.726 95.407 260.821 95.7028 261.918 95.612C263.192 95.4883 264.366 94.8692 265.188 93.8881C266.01 92.907 266.413 91.6424 266.311 90.3667C266.271 89.7388 266.107 89.1251 265.827 88.5617C265.547 87.9982 265.157 87.4962 264.681 87.0851C264.204 86.674 263.651 86.3619 263.052 86.1673C262.454 85.9726 261.823 85.8991 261.196 85.9513C259.931 86.0719 258.764 86.6818 257.943 87.6508C257.121 88.6198 256.711 89.8713 256.799 91.1385C256.511 90.0724 255.857 89.1417 254.951 88.5094C254.045 87.8771 252.946 87.5835 251.846 87.68C250.571 87.8015 249.395 88.4193 248.572 89.4001C247.748 90.3809 247.343 91.6462 247.444 92.9229C247.485 93.5524 247.65 94.1675 247.932 94.7322C248.213 95.2969 248.604 95.7997 249.082 96.2114C249.56 96.623 250.116 96.9351 250.716 97.1294C251.316 97.3238 251.949 97.3964 252.577 97.3431Z" fill="#FFE6BD"/>
<path d="M256.949 180.455C256.898 179.715 256.676 178.998 256.3 178.359C255.925 177.721 255.407 177.178 254.786 176.773C255.967 176.547 257.023 175.894 257.752 174.937C258.481 173.98 258.83 172.788 258.734 171.59C258.666 170.611 258.297 169.677 257.679 168.916C257.061 168.154 256.223 167.602 255.279 167.334C256.005 166.848 256.587 166.176 256.965 165.389C257.343 164.602 257.504 163.728 257.43 162.858C257.352 161.681 256.839 160.575 255.992 159.755C255.144 158.936 254.022 158.46 252.843 158.422C253.422 157.919 253.876 157.287 254.169 156.578C254.461 155.868 254.584 155.101 254.528 154.335C254.451 153.208 253.976 152.144 253.187 151.335C252.398 150.525 251.347 150.023 250.222 149.918C250.638 149.105 250.823 148.194 250.756 147.283C250.675 146.053 250.117 144.903 249.2 144.078C248.284 143.253 247.082 142.819 245.85 142.866C246.296 142.04 246.497 141.104 246.431 140.168C246.353 138.983 245.834 137.87 244.976 137.048C244.119 136.227 242.985 135.756 241.797 135.729C242.24 134.901 242.439 133.964 242.369 133.028C242.296 131.966 241.869 130.959 241.157 130.167C240.444 129.376 239.487 128.847 238.438 128.664C239.251 127.683 239.646 126.422 239.541 125.153C239.48 124.271 239.176 123.423 238.661 122.703C238.146 121.984 237.442 121.422 236.626 121.08C237.068 120.588 237.406 120.011 237.619 119.385C237.833 118.759 237.918 118.096 237.869 117.436C237.79 116.295 237.305 115.22 236.502 114.406C237.134 114.132 237.702 113.729 238.168 113.222C238.634 112.714 238.988 112.115 239.207 111.462C239.426 110.809 239.505 110.117 239.439 109.431C239.373 108.746 239.163 108.082 238.824 107.483C240.036 107.304 241.136 106.674 241.905 105.72C242.674 104.765 243.055 103.556 242.972 102.334C242.962 102.155 242.939 101.977 242.905 101.802C243.256 101.851 243.611 101.86 243.964 101.829C245.238 101.707 246.414 101.089 247.236 100.107C248.058 99.1255 248.461 97.8595 248.357 96.5833C248.317 95.9554 248.152 95.3417 247.872 94.7783C247.592 94.2148 247.202 93.7128 246.726 93.3017C246.25 92.8906 245.696 92.5786 245.098 92.3839C244.499 92.1892 243.868 92.1158 243.241 92.1679C241.967 92.2916 240.793 92.9107 239.971 93.8918C239.15 94.8729 238.746 96.1375 238.848 97.4132C238.861 97.5927 238.887 97.7711 238.924 97.9473C238.57 97.8961 238.212 97.8864 237.856 97.9182C237.046 98.0002 236.269 98.2829 235.595 98.7409C234.922 99.1988 234.373 99.8175 233.999 100.541C233.625 101.264 233.437 102.07 233.452 102.884C233.467 103.698 233.685 104.496 234.087 105.205C232.866 105.389 231.761 106.029 230.994 106.996C230.226 107.962 229.853 109.184 229.951 110.414C230.031 111.553 230.517 112.625 231.32 113.436C230.373 113.84 229.577 114.533 229.045 115.415C228.513 116.297 228.273 117.324 228.357 118.351C228.419 119.234 228.725 120.083 229.241 120.803C229.757 121.522 230.463 122.084 231.28 122.426C230.838 122.92 230.5 123.498 230.286 124.126C230.072 124.753 229.986 125.418 230.035 126.079C230.108 127.141 230.534 128.148 231.247 128.939C231.959 129.731 232.917 130.26 233.965 130.443C233.157 131.427 232.762 132.685 232.863 133.954C232.941 135.139 233.46 136.252 234.317 137.073C235.175 137.895 236.309 138.365 237.497 138.392C237.05 139.218 236.849 140.155 236.916 141.091C236.999 142.323 237.559 143.473 238.476 144.3C239.393 145.126 240.595 145.563 241.829 145.519C241.381 146.344 241.18 147.281 241.248 148.217C241.321 149.346 241.795 150.412 242.585 151.222C243.375 152.032 244.428 152.533 245.555 152.635C245.138 153.448 244.953 154.359 245.02 155.27C245.096 156.447 245.608 157.553 246.457 158.372C247.306 159.191 248.43 159.663 249.609 159.696C249.029 160.201 248.574 160.834 248.281 161.545C247.988 162.256 247.865 163.025 247.922 163.792C247.99 164.771 248.358 165.705 248.977 166.466C249.595 167.228 250.433 167.78 251.377 168.048C250.655 168.538 250.075 169.21 249.697 169.996C249.32 170.782 249.157 171.655 249.226 172.524C249.279 173.263 249.504 173.98 249.881 174.617C250.258 175.255 250.778 175.796 251.4 176.199C250.217 176.424 249.158 177.079 248.427 178.036C247.697 178.994 247.345 180.188 247.441 181.389C247.51 182.348 247.864 183.265 248.457 184.021C247.762 183.723 247.004 183.602 246.25 183.668C244.998 183.798 243.846 184.405 243.031 185.363C242.216 186.321 241.801 187.557 241.874 188.813C241.955 189.923 242.417 190.971 243.182 191.78C242.707 191.361 242.153 191.042 241.552 190.843C240.951 190.645 240.316 190.57 239.685 190.624C238.411 190.746 237.235 191.364 236.413 192.346C235.591 193.327 235.188 194.593 235.292 195.869C235.374 197.031 235.877 198.123 236.705 198.941C235.922 198.532 235.039 198.355 234.159 198.43C232.885 198.553 231.711 199.172 230.89 200.153C230.068 201.135 229.664 202.399 229.766 203.675C229.85 204.943 230.433 206.125 231.387 206.964C230.816 206.788 230.216 206.724 229.62 206.776C228.346 206.897 227.17 207.516 226.348 208.497C225.526 209.479 225.123 210.745 225.227 212.021C225.289 212.94 225.616 213.821 226.168 214.558C226.721 215.296 227.474 215.857 228.339 216.175C228.24 216.172 228.141 216.174 228.042 216.181C226.768 216.305 225.594 216.924 224.772 217.905C223.951 218.886 223.547 220.151 223.649 221.427C223.729 222.484 224.156 223.485 224.865 224.274C227.38 224.158 229.872 223.77 232.384 223.625C232.975 222.733 233.259 221.674 233.193 220.606C233.13 219.688 232.803 218.808 232.25 218.073C231.697 217.337 230.944 216.777 230.079 216.461L230.378 216.446C231.651 216.32 232.824 215.7 233.645 214.72C234.466 213.739 234.871 212.476 234.771 211.201C234.685 209.934 234.102 208.752 233.15 207.912C233.721 208.092 234.322 208.156 234.917 208.1C235.838 208.008 236.714 207.658 237.443 207.088C238.172 206.519 238.725 205.755 239.037 204.884C239.349 204.013 239.407 203.071 239.206 202.169C239.004 201.266 238.55 200.439 237.897 199.783C238.68 200.192 239.563 200.369 240.444 200.294C241.717 200.171 242.891 199.552 243.713 198.57C244.535 197.589 244.938 196.325 244.837 195.049C244.756 193.939 244.294 192.891 243.529 192.082C244.003 192.502 244.556 192.821 245.157 193.021C245.757 193.221 246.392 193.298 247.023 193.247C247.893 193.159 248.724 192.839 249.429 192.321C250.134 191.804 250.687 191.107 251.032 190.303C251.376 189.499 251.499 188.617 251.388 187.75C251.277 186.882 250.935 186.06 250.399 185.369C251.095 185.657 251.85 185.775 252.6 185.712C253.868 185.577 255.033 184.952 255.846 183.969C256.659 182.987 257.054 181.725 256.949 180.455Z" fill="#FFE6BD"/>
<path d="M297.041 149.323C297.397 149.374 297.758 149.384 298.117 149.355C299.39 149.229 300.563 148.609 301.384 147.628C302.205 146.648 302.609 145.385 302.51 144.109C302.436 143.031 301.998 142.011 301.267 141.215C300.536 140.419 299.556 139.895 298.488 139.73L298.709 139.723C299.983 139.599 301.157 138.98 301.979 137.999C302.801 137.018 303.204 135.753 303.102 134.478C303.062 133.85 302.897 133.236 302.617 132.672C302.337 132.109 301.948 131.607 301.471 131.196C300.995 130.785 300.442 130.473 299.843 130.278C299.245 130.083 298.614 130.01 297.987 130.062C296.713 130.186 295.539 130.805 294.717 131.786C293.895 132.767 293.492 134.032 293.594 135.307C293.668 136.385 294.106 137.406 294.837 138.202C295.568 138.998 296.547 139.521 297.615 139.687L297.394 139.694C296.12 139.815 294.943 140.433 294.12 141.414C293.296 142.395 292.892 143.66 292.993 144.937C293.043 145.641 293.248 146.324 293.593 146.94C293.938 147.555 294.414 148.087 294.988 148.497C294.635 148.446 294.276 148.436 293.921 148.468C292.942 148.566 292.015 148.957 291.262 149.59C290.508 150.222 289.963 151.068 289.698 152.015C289.433 152.963 289.46 153.968 289.775 154.9C290.091 155.832 290.68 156.648 291.466 157.239C290.956 157.106 290.428 157.061 289.903 157.106C289 157.194 288.139 157.532 287.417 158.081C286.695 158.631 286.141 159.37 285.815 160.217C285.489 161.064 285.406 161.985 285.573 162.877C285.741 163.768 286.154 164.596 286.765 165.266C286.285 164.804 285.712 164.449 285.084 164.227C284.456 164.005 283.788 163.919 283.124 163.976C281.85 164.1 280.676 164.719 279.854 165.7C279.033 166.681 278.629 167.946 278.731 169.222C278.773 169.85 278.939 170.465 279.219 171.029C279.498 171.594 279.886 172.098 280.361 172.513C279.561 172.082 278.652 171.895 277.746 171.974C276.473 172.1 275.301 172.72 274.479 173.7C273.658 174.681 273.254 175.944 273.353 177.219C273.391 177.694 273.496 178.162 273.666 178.607C273.185 178.138 272.609 177.779 271.976 177.554C271.344 177.329 270.67 177.242 270.001 177.301C269.137 177.388 268.312 177.703 267.609 178.214C266.907 178.725 266.353 179.413 266.005 180.208C265.656 181.004 265.525 181.877 265.625 182.74C265.725 183.603 266.053 184.423 266.575 185.117C266.091 184.621 265.503 184.238 264.854 183.997C264.205 183.755 263.51 183.661 262.819 183.721C262.009 183.799 261.232 184.079 260.558 184.535C259.883 184.99 259.334 185.607 258.959 186.329C258.584 187.051 258.395 187.856 258.41 188.669C258.425 189.483 258.644 190.28 259.046 190.988C258.125 190.327 256.995 190.024 255.867 190.136C254.593 190.257 253.417 190.876 252.595 191.858C251.773 192.839 251.37 194.105 251.474 195.381C251.528 196.176 251.781 196.945 252.209 197.617C252.638 198.289 253.228 198.842 253.927 199.226C253.19 199.075 252.428 199.099 251.702 199.296C250.976 199.492 250.306 199.856 249.747 200.358C249.187 200.86 248.752 201.486 248.478 202.186C248.203 202.887 248.096 203.641 248.166 204.39C248.234 205.369 248.603 206.302 249.221 207.064C249.84 207.826 250.678 208.378 251.621 208.646C250.922 208.6 250.222 208.707 249.569 208.959C248.915 209.211 248.324 209.602 247.837 210.105C247.35 210.608 246.979 211.212 246.748 211.873C246.518 212.534 246.434 213.238 246.503 213.935C246.544 214.562 246.71 215.175 246.99 215.738C247.271 216.301 247.66 216.803 248.136 217.213C248.612 217.624 249.166 217.936 249.763 218.132C250.361 218.327 250.992 218.401 251.619 218.35C252.891 218.224 254.064 217.605 254.885 216.624C255.707 215.643 256.111 214.38 256.012 213.105C255.946 212.126 255.578 211.191 254.96 210.428C254.341 209.666 253.501 209.115 252.556 208.849C253.654 208.909 254.74 208.596 255.637 207.961C256.535 207.326 257.191 206.406 257.499 205.351C257.807 204.295 257.749 203.167 257.334 202.149C256.92 201.13 256.173 200.282 255.215 199.742C255.663 199.84 256.123 199.871 256.58 199.832C257.389 199.751 258.164 199.469 258.836 199.013C259.509 198.557 260.057 197.942 260.432 197.221C260.808 196.501 260.998 195.698 260.986 194.886C260.974 194.074 260.76 193.277 260.363 192.568C261.284 193.229 262.414 193.532 263.541 193.42C264.814 193.294 265.987 192.674 266.808 191.693C267.629 190.713 268.034 189.45 267.934 188.174C267.866 187.24 267.527 186.346 266.959 185.601C267.443 186.097 268.03 186.479 268.68 186.721C269.329 186.962 270.024 187.056 270.714 186.997C271.989 186.876 273.164 186.257 273.987 185.276C274.809 184.294 275.211 183.028 275.107 181.752C275.077 181.273 274.972 180.802 274.796 180.356C275.273 180.829 275.849 181.193 276.482 181.42C277.115 181.647 277.79 181.732 278.459 181.67C279.734 181.549 280.909 180.93 281.732 179.949C282.554 178.967 282.956 177.701 282.852 176.425C282.811 175.796 282.646 175.181 282.367 174.616C282.087 174.051 281.698 173.547 281.222 173.134C282.023 173.565 282.932 173.752 283.837 173.673C285.111 173.549 286.285 172.93 287.107 171.949C287.928 170.968 288.332 169.703 288.23 168.427C288.153 167.34 287.707 166.311 286.966 165.51C287.448 165.973 288.022 166.327 288.652 166.55C289.281 166.773 289.951 166.859 290.616 166.802C291.889 166.676 293.062 166.057 293.883 165.076C294.704 164.095 295.108 162.832 295.009 161.557C294.961 160.868 294.765 160.197 294.436 159.59C294.106 158.983 293.65 158.454 293.098 158.038C293.607 158.173 294.136 158.218 294.66 158.171C295.934 158.048 297.108 157.429 297.93 156.448C298.752 155.466 299.155 154.202 299.053 152.926C299.008 152.213 298.804 151.52 298.456 150.896C298.108 150.273 297.624 149.735 297.041 149.323Z" fill="#FFE6BD"/>
</g>
<path d="M215.009 252.784C214.666 253.174 214.213 253.45 213.71 253.577C213.207 253.704 212.677 253.675 212.191 253.494C211.704 253.313 211.284 252.989 210.986 252.564C210.687 252.14 210.525 251.635 210.52 251.116C210.515 250.597 210.667 250.088 210.957 249.658C211.247 249.228 211.661 248.895 212.143 248.705C212.626 248.515 213.155 248.475 213.661 248.592C214.167 248.709 214.625 248.976 214.975 249.359C215.433 249.809 215.693 250.423 215.7 251.065C215.706 251.706 215.458 252.325 215.009 252.784Z" fill="#A85000"/>
<path d="M214.953 249.372C214.713 249.315 214.464 249.32 214.227 249.388C213.991 249.456 213.776 249.584 213.604 249.76C213.432 249.935 213.308 250.153 213.244 250.39C213.181 250.628 213.18 250.878 213.242 251.116C213.304 251.354 213.426 251.572 213.597 251.748C213.768 251.925 213.982 252.054 214.218 252.124C214.454 252.193 214.704 252.201 214.943 252.145C215.183 252.089 215.404 251.973 215.585 251.806C215.695 251.38 215.694 250.933 215.584 250.507C215.473 250.081 215.256 249.691 214.953 249.372Z" fill="#A0510A"/>
<path d="M214.002 250.221C213.382 249.55 213.054 248.661 213.09 247.748C213.126 246.835 213.523 245.974 214.193 245.353L222.661 237.508C223.335 236.891 224.225 236.564 225.139 236.601C226.052 236.637 226.914 237.033 227.537 237.702C228.155 238.376 228.481 239.266 228.445 240.18C228.409 241.093 228.013 241.955 227.344 242.578L218.87 250.412C218.198 251.03 217.309 251.356 216.397 251.32C215.485 251.285 214.624 250.889 214.002 250.221Z" fill="#A85000"/>
<path d="M222.818 237.417C222.81 238.603 223.26 239.747 224.075 240.608C224.535 241.142 225.119 241.555 225.774 241.812C226.43 242.069 227.138 242.162 227.838 242.083C228.317 241.398 228.53 240.564 228.439 239.734C228.349 238.904 227.96 238.135 227.345 237.57C226.73 237.005 225.931 236.683 225.096 236.663C224.261 236.643 223.448 236.927 222.806 237.461L222.818 237.417Z" fill="#A0510A"/>
<path d="M214.983 248.514C214.882 248.405 214.804 248.277 214.752 248.137C214.701 247.998 214.678 247.849 214.684 247.701C214.691 247.552 214.726 247.406 214.789 247.271C214.851 247.136 214.94 247.015 215.05 246.915L223.209 239.368C223.318 239.266 223.446 239.187 223.585 239.134C223.725 239.082 223.873 239.058 224.022 239.064C224.171 239.069 224.317 239.104 224.453 239.166C224.588 239.228 224.71 239.316 224.811 239.426C224.913 239.535 224.992 239.662 225.044 239.802C225.096 239.941 225.12 240.09 225.115 240.239C225.109 240.388 225.075 240.534 225.013 240.669C224.95 240.805 224.862 240.926 224.753 241.028L216.582 248.581C216.36 248.783 216.068 248.889 215.769 248.876C215.469 248.863 215.187 248.734 214.983 248.514Z" fill="#D67116"/>
<path d="M230.652 240.458C229.372 241.685 227.017 241.311 225.467 239.64C223.917 237.968 223.745 235.629 225.06 234.412C226.376 233.194 228.706 233.552 230.248 235.221C231.789 236.89 231.974 239.252 230.652 240.458Z" fill="#A85000"/>
<path d="M230.443 237.938C229.927 238.408 228.877 238.099 228.096 237.252C227.314 236.405 227.08 235.324 227.588 234.851C228.095 234.378 229.153 234.69 229.935 235.537C230.716 236.384 230.95 237.465 230.443 237.938Z" fill="#D67116"/>
<path d="M228.843 236.272C230.106 234.508 230.753 232.378 230.686 230.21L231.109 230.162C231.193 232.126 230.692 234.072 229.668 235.751C231.427 234.833 234.074 234.22 234.867 234.385L234.758 234.793C232.758 234.895 230.817 235.505 229.117 236.564L228.843 236.272Z" fill="#773A08"/>
<path d="M281.776 98.5924C281.857 99.57 282.225 100.502 282.835 101.27C283.444 102.039 284.268 102.609 285.201 102.91C286.135 103.21 287.137 103.228 288.08 102.959C289.024 102.691 289.867 102.149 290.502 101.402C291.138 100.655 291.538 99.7361 291.652 98.7619C291.766 97.7876 291.588 96.8015 291.142 95.928C290.696 95.0545 290.001 94.3328 289.144 93.8541C288.288 93.3754 287.31 93.1612 286.332 93.2384C285.018 93.3446 283.8 93.9683 282.946 94.9723C282.091 95.9763 281.671 97.2784 281.776 98.5924Z" fill="#B75F08"/>
<path d="M285.007 95.519C284.831 95.975 284.799 96.474 284.915 96.9487C285.032 97.4233 285.291 97.8509 285.658 98.1737C286.025 98.4965 286.482 98.699 286.968 98.7538C287.453 98.8087 287.944 98.7134 288.374 98.4806C288.804 98.2478 289.152 97.8889 289.371 97.4522C289.591 97.0154 289.671 96.5219 289.601 96.0382C289.531 95.5545 289.315 95.1037 288.981 94.7469C288.647 94.39 288.212 94.1441 287.734 94.0423C287.176 93.8801 286.577 93.9442 286.067 94.2206C285.556 94.4971 285.176 94.9636 285.007 95.519Z" fill="#D67116"/>
<path d="M274.016 92.7548C274.097 93.7325 274.466 94.6644 275.076 95.4325C275.687 96.2007 276.511 96.7707 277.445 97.0705C278.379 97.3704 279.381 97.3866 280.325 97.1171C281.268 96.8477 282.111 96.3047 282.746 95.5567C283.38 94.8087 283.779 93.8893 283.892 92.9146C284.005 91.94 283.826 90.9539 283.378 90.0808C282.93 89.2078 282.234 88.487 281.377 88.0095C280.52 87.5321 279.54 87.3194 278.563 87.3984C277.912 87.4497 277.277 87.6292 276.696 87.9266C276.115 88.2239 275.598 88.6333 275.175 89.1311C274.753 89.6289 274.433 90.2053 274.234 90.8272C274.035 91.4491 273.961 92.1041 274.016 92.7548Z" fill="#B75F08"/>
<path d="M277.25 89.6346C277.074 90.0906 277.042 90.5896 277.158 91.0643C277.275 91.5389 277.534 91.9665 277.901 92.2893C278.268 92.6121 278.725 92.8146 279.211 92.8694C279.696 92.9243 280.187 92.829 280.617 92.5962C281.047 92.3634 281.395 92.0045 281.614 91.5678C281.834 91.131 281.914 90.6375 281.844 90.1538C281.774 89.6701 281.558 89.2193 281.224 88.8625C280.89 88.5056 280.455 88.2597 279.977 88.1579C279.419 87.9957 278.82 88.0598 278.31 88.3362C277.799 88.6127 277.419 89.0792 277.25 89.6346Z" fill="#D67116"/>
<path d="M265.113 88.9802C265.192 89.9585 265.559 90.8914 266.168 91.6611C266.777 92.4308 267.6 93.0027 268.534 93.3046C269.467 93.6064 270.47 93.6246 271.414 93.3569C272.358 93.0892 273.202 92.5475 273.838 91.8004C274.474 91.0534 274.875 90.1344 274.989 89.1597C275.103 88.1849 274.926 87.1983 274.479 86.3243C274.033 85.4504 273.337 84.7285 272.481 84.2498C271.624 83.7712 270.645 83.5573 269.666 83.6351C268.354 83.742 267.138 84.3647 266.285 85.3666C265.431 86.3686 265.01 87.6681 265.113 88.9802Z" fill="#B75F08"/>
<path d="M268.351 85.8802C268.173 86.3358 268.139 86.835 268.254 87.3104C268.369 87.7859 268.627 88.2146 268.993 88.5387C269.36 88.8628 269.817 89.0668 270.303 89.1229C270.788 89.1791 271.28 89.0848 271.71 88.8528C272.141 88.6209 272.49 88.2623 272.71 87.8257C272.931 87.389 273.012 86.8952 272.942 86.411C272.873 85.9269 272.657 85.4756 272.323 85.1182C271.989 84.7607 271.554 84.5143 271.076 84.4123C270.52 84.248 269.921 84.31 269.411 84.585C268.901 84.86 268.52 85.3255 268.351 85.8802Z" fill="#D67116"/>
<path d="M255.408 86.8171C255.486 87.7953 255.853 88.7282 256.462 89.4979C257.071 90.2677 257.894 90.8396 258.828 91.1414C259.762 91.4433 260.764 91.4615 261.708 91.1937C262.652 90.926 263.496 90.3844 264.132 89.6373C264.769 88.8902 265.169 87.9712 265.283 86.9965C265.398 86.0218 265.22 85.0351 264.774 84.1612C264.327 83.2873 263.632 82.5653 262.775 82.0867C261.918 81.608 260.939 81.3941 259.961 81.472C259.311 81.5237 258.677 81.7031 258.096 81.9997C257.516 82.2964 256.999 82.7046 256.576 83.201C256.154 83.6974 255.833 84.2723 255.632 84.8927C255.432 85.5132 255.355 86.1671 255.408 86.8171Z" fill="#B75F08"/>
<path d="M258.623 83.6922C258.446 84.1478 258.412 84.647 258.527 85.1224C258.642 85.5979 258.9 86.0266 259.266 86.3507C259.632 86.6749 260.089 86.8788 260.575 86.9349C261.061 86.9911 261.552 86.8969 261.983 86.6649C262.413 86.4329 262.762 86.0743 262.983 85.6377C263.203 85.201 263.284 84.7072 263.215 84.2231C263.146 83.7389 262.929 83.2876 262.596 82.9302C262.262 82.5727 261.826 82.3264 261.348 82.2243C260.792 82.06 260.194 82.122 259.683 82.397C259.173 82.672 258.792 83.1375 258.623 83.6922Z" fill="#D67116"/>
<path d="M245.688 88.5418C245.766 89.5201 246.133 90.453 246.742 91.2227C247.351 91.9924 248.174 92.5643 249.108 92.8662C250.042 93.168 251.044 93.1862 251.988 92.9185C252.932 92.6507 253.776 92.1091 254.412 91.362C255.049 90.6149 255.449 89.696 255.564 88.7212C255.678 87.7465 255.5 86.7598 255.054 85.8859C254.607 85.012 253.912 84.2901 253.055 83.8114C252.198 83.3327 251.219 83.1188 250.241 83.1967C248.929 83.3036 247.713 83.9262 246.859 84.9282C246.006 85.9302 245.584 87.2297 245.688 88.5418Z" fill="#B75F08"/>
<path d="M248.923 85.4508C248.747 85.9067 248.715 86.4057 248.832 86.8804C248.948 87.355 249.207 87.7826 249.574 88.1054C249.941 88.4282 250.398 88.6307 250.884 88.6855C251.37 88.7404 251.86 88.645 252.29 88.4123C252.72 88.1795 253.068 87.8206 253.287 87.3839C253.507 86.9471 253.587 86.4536 253.517 85.9699C253.448 85.4862 253.231 85.0354 252.897 84.6786C252.563 84.3217 252.128 84.0758 251.65 83.974C251.092 83.8118 250.494 83.8759 249.983 84.1523C249.473 84.4288 249.092 84.8953 248.923 85.4508Z" fill="#D67116"/>
<path d="M236.752 93.0552C236.831 94.0335 237.198 94.9664 237.807 95.7361C238.416 96.5058 239.239 97.0777 240.173 97.3796C241.107 97.6814 242.109 97.6996 243.053 97.4319C243.997 97.1642 244.841 96.6225 245.477 95.8754C246.114 95.1284 246.514 94.2094 246.628 93.2347C246.742 92.2599 246.565 91.2733 246.119 90.3993C245.672 89.5254 244.976 88.8035 244.12 88.3248C243.263 87.8462 242.284 87.6322 241.305 87.7101C240.655 87.7619 240.022 87.9412 239.441 88.2379C238.861 88.5346 238.344 88.9428 237.921 89.4392C237.498 89.9356 237.177 90.5104 236.977 91.1309C236.776 91.7514 236.7 92.4053 236.752 93.0552Z" fill="#B75F08"/>
<path d="M239.99 89.9553C239.812 90.4109 239.778 90.9101 239.893 91.3855C240.008 91.8609 240.266 92.2897 240.632 92.6138C240.999 92.9379 241.456 93.1418 241.942 93.198C242.427 93.2542 242.919 93.1599 243.349 92.9279C243.78 92.6959 244.129 92.3374 244.349 91.9007C244.57 91.4641 244.651 90.9703 244.581 90.4861C244.512 90.0019 244.296 89.5507 243.962 89.1932C243.628 88.8358 243.193 88.5894 242.715 88.4874C242.159 88.323 241.56 88.3851 241.05 88.6601C240.54 88.935 240.159 89.4006 239.99 89.9553Z" fill="#D67116"/>
<path d="M231.176 98.916C231.255 99.8943 231.622 100.827 232.231 101.597C232.84 102.367 233.663 102.939 234.597 103.24C235.531 103.542 236.533 103.56 237.477 103.293C238.421 103.025 239.265 102.483 239.901 101.736C240.538 100.989 240.938 100.07 241.052 99.0955C241.166 98.1207 240.989 97.134 240.543 96.2601C240.096 95.3862 239.4 94.6643 238.544 94.1856C237.687 93.7069 236.708 93.493 235.729 93.5709C234.417 93.6778 233.202 94.3005 232.348 95.3024C231.495 96.3044 231.073 97.6039 231.176 98.916Z" fill="#B75F08"/>
<path d="M234.441 95.823C234.263 96.2786 234.229 96.7778 234.344 97.2532C234.459 97.7287 234.717 98.1574 235.083 98.4815C235.449 98.8057 235.906 99.0096 236.392 99.0657C236.878 99.1219 237.369 99.0276 237.8 98.7957C238.231 98.5637 238.58 98.2051 238.8 97.7685C239.02 97.3318 239.101 96.838 239.032 96.3539C238.963 95.8697 238.747 95.4184 238.413 95.061C238.079 94.7035 237.643 94.4572 237.165 94.3551C236.609 94.1957 236.013 94.26 235.504 94.5343C234.995 94.8086 234.613 95.2711 234.441 95.823Z" fill="#D67116"/>
<path d="M227.554 106.328C227.635 107.305 228.004 108.237 228.614 109.005C229.224 109.774 230.049 110.344 230.983 110.643C231.917 110.943 232.919 110.96 233.863 110.69C234.806 110.421 235.648 109.878 236.283 109.13C236.918 108.382 237.317 107.462 237.43 106.488C237.542 105.513 237.363 104.527 236.916 103.654C236.468 102.781 235.772 102.06 234.915 101.582C234.058 101.105 233.078 100.892 232.1 100.971C231.45 101.024 230.816 101.204 230.235 101.502C229.655 101.8 229.138 102.209 228.716 102.707C228.294 103.204 227.974 103.78 227.774 104.401C227.575 105.023 227.5 105.677 227.554 106.328Z" fill="#B75F08"/>
<path d="M230.792 103.228C230.618 103.682 230.588 104.178 230.705 104.65C230.822 105.122 231.08 105.547 231.446 105.868C231.812 106.188 232.267 106.389 232.75 106.443C233.233 106.497 233.721 106.402 234.149 106.171C234.576 105.939 234.923 105.582 235.141 105.148C235.36 104.714 235.44 104.223 235.372 103.742C235.303 103.26 235.089 102.811 234.757 102.456C234.426 102.1 233.994 101.854 233.518 101.751C232.961 101.586 232.361 101.649 231.85 101.926C231.339 102.203 230.958 102.671 230.792 103.228Z" fill="#D67116"/>
<path d="M225.946 114.422C226.027 115.4 226.396 116.332 227.007 117.1C227.617 117.868 228.441 118.438 229.376 118.738C230.31 119.038 231.312 119.054 232.255 118.785C233.199 118.515 234.041 117.972 234.676 117.224C235.311 116.476 235.71 115.557 235.822 114.582C235.935 113.607 235.756 112.621 235.308 111.748C234.861 110.875 234.164 110.154 233.307 109.677C232.45 109.2 231.471 108.987 230.493 109.066C229.842 109.118 229.209 109.299 228.628 109.596C228.047 109.894 227.531 110.303 227.109 110.801C226.686 111.299 226.366 111.874 226.167 112.496C225.967 113.117 225.892 113.772 225.946 114.422Z" fill="#B75F08"/>
<path d="M229.184 111.322C229.011 111.776 228.98 112.273 229.097 112.745C229.214 113.216 229.473 113.641 229.839 113.962C230.204 114.282 230.659 114.483 231.142 114.537C231.625 114.591 232.114 114.496 232.541 114.265C232.969 114.033 233.315 113.676 233.534 113.242C233.752 112.808 233.833 112.317 233.764 111.836C233.695 111.354 233.481 110.906 233.15 110.55C232.818 110.194 232.386 109.948 231.911 109.845C231.354 109.683 230.755 109.747 230.244 110.024C229.734 110.3 229.353 110.767 229.184 111.322Z" fill="#D67116"/>
<path d="M227.735 122.342C227.816 123.319 228.185 124.251 228.795 125.019C229.405 125.788 230.23 126.358 231.164 126.657C232.098 126.957 233.1 126.974 234.044 126.704C234.987 126.435 235.829 125.892 236.464 125.144C237.099 124.396 237.498 123.476 237.611 122.502C237.723 121.527 237.544 120.541 237.097 119.668C236.649 118.795 235.953 118.074 235.096 117.597C234.239 117.119 233.259 116.906 232.281 116.985C231.631 117.038 230.997 117.218 230.416 117.516C229.836 117.814 229.319 118.223 228.897 118.721C228.475 119.218 228.155 119.794 227.955 120.415C227.756 121.037 227.681 121.691 227.735 122.342Z" fill="#B75F08"/>
<path d="M230.964 119.239C230.788 119.695 230.756 120.194 230.872 120.669C230.989 121.144 231.248 121.571 231.615 121.894C231.982 122.217 232.439 122.419 232.925 122.474C233.41 122.529 233.901 122.434 234.331 122.201C234.761 121.968 235.109 121.609 235.328 121.173C235.548 120.736 235.628 120.242 235.558 119.759C235.488 119.275 235.272 118.824 234.938 118.467C234.604 118.11 234.169 117.864 233.691 117.763C233.133 117.603 232.535 117.668 232.026 117.944C231.516 118.22 231.135 118.685 230.964 119.239Z" fill="#D67116"/>
<path d="M230.702 130.444C230.781 131.422 231.149 132.355 231.758 133.125C232.368 133.894 233.192 134.465 234.126 134.767C235.06 135.068 236.063 135.085 237.007 134.816C237.951 134.547 238.794 134.005 239.43 133.257C240.066 132.509 240.465 131.589 240.578 130.614C240.691 129.639 240.512 128.652 240.064 127.778C239.616 126.905 238.92 126.184 238.062 125.707C237.204 125.229 236.224 125.017 235.246 125.096C233.934 125.203 232.719 125.826 231.866 126.829C231.014 127.832 230.595 129.132 230.702 130.444Z" fill="#B75F08"/>
<path d="M233.949 127.309C233.773 127.765 233.741 128.264 233.857 128.738C233.974 129.213 234.233 129.64 234.6 129.963C234.967 130.286 235.424 130.488 235.91 130.543C236.396 130.598 236.886 130.503 237.316 130.27C237.746 130.037 238.094 129.678 238.313 129.242C238.533 128.805 238.613 128.311 238.543 127.828C238.473 127.344 238.257 126.893 237.923 126.536C237.589 126.18 237.154 125.934 236.676 125.832C236.118 125.67 235.519 125.734 235.009 126.01C234.499 126.287 234.118 126.753 233.949 127.309Z" fill="#D67116"/>
<path d="M234.984 137.719C235.064 138.698 235.431 139.63 236.041 140.4C236.651 141.169 237.475 141.741 238.409 142.042C239.343 142.343 240.346 142.36 241.29 142.091C242.234 141.823 243.077 141.28 243.713 140.532C244.349 139.784 244.748 138.864 244.861 137.889C244.974 136.914 244.795 135.927 244.347 135.054C243.899 134.18 243.202 133.459 242.345 132.982C241.487 132.504 240.507 132.292 239.529 132.372C238.217 132.478 237.001 133.102 236.149 134.104C235.297 135.107 234.878 136.407 234.984 137.719Z" fill="#B75F08"/>
<path d="M238.213 134.617C238.036 135.072 238.002 135.571 238.117 136.047C238.231 136.522 238.489 136.951 238.856 137.275C239.222 137.599 239.679 137.803 240.165 137.859C240.651 137.915 241.142 137.821 241.573 137.589C242.003 137.357 242.352 136.999 242.573 136.562C242.793 136.125 242.874 135.632 242.805 135.147C242.736 134.663 242.519 134.212 242.186 133.855C241.852 133.497 241.416 133.251 240.938 133.149C240.382 132.989 239.786 133.054 239.277 133.328C238.768 133.602 238.386 134.065 238.213 134.617Z" fill="#D67116"/>
<path d="M239.516 145.061C239.596 146.038 239.964 146.97 240.574 147.738C241.184 148.507 242.007 149.077 242.941 149.378C243.875 149.679 244.876 149.696 245.82 149.427C246.763 149.159 247.606 148.617 248.242 147.87C248.877 147.123 249.277 146.204 249.391 145.23C249.505 144.256 249.328 143.27 248.881 142.396C248.435 141.523 247.74 140.801 246.884 140.322C246.028 139.844 245.049 139.629 244.071 139.707C242.757 139.813 241.539 140.436 240.685 141.44C239.831 142.444 239.41 143.747 239.516 145.061Z" fill="#B75F08"/>
<path d="M242.754 141.961C242.578 142.417 242.546 142.916 242.662 143.39C242.779 143.865 243.038 144.292 243.405 144.615C243.772 144.938 244.229 145.141 244.715 145.195C245.2 145.25 245.691 145.155 246.121 144.922C246.551 144.689 246.899 144.33 247.118 143.894C247.337 143.457 247.418 142.964 247.348 142.48C247.278 141.996 247.062 141.545 246.728 141.188C246.394 140.832 245.958 140.586 245.48 140.484C244.923 140.322 244.324 140.386 243.814 140.662C243.303 140.939 242.922 141.405 242.754 141.961Z" fill="#D67116"/>
<path d="M243.476 152.297C243.555 153.277 243.922 154.212 244.532 154.983C245.143 155.755 245.968 156.328 246.904 156.63C247.84 156.932 248.844 156.95 249.79 156.682C250.736 156.413 251.581 155.87 252.219 155.121C252.856 154.372 253.257 153.45 253.371 152.473C253.484 151.497 253.306 150.508 252.857 149.633C252.409 148.757 251.711 148.034 250.852 147.556C249.993 147.077 249.011 146.864 248.031 146.943C246.717 147.049 245.499 147.673 244.645 148.677C243.791 149.681 243.37 150.983 243.476 152.297Z" fill="#B75F08"/>
<path d="M246.714 149.197C246.538 149.653 246.506 150.152 246.622 150.626C246.739 151.101 246.998 151.529 247.365 151.851C247.732 152.174 248.189 152.377 248.675 152.431C249.16 152.486 249.651 152.391 250.081 152.158C250.511 151.926 250.859 151.567 251.078 151.13C251.298 150.693 251.378 150.2 251.308 149.716C251.238 149.232 251.022 148.781 250.688 148.425C250.354 148.068 249.919 147.822 249.44 147.72C248.883 147.56 248.285 147.625 247.776 147.902C247.266 148.178 246.884 148.643 246.714 149.197Z" fill="#D67116"/>
<path d="M246.548 161.036C246.627 162.015 246.995 162.947 247.605 163.717C248.214 164.486 249.038 165.058 249.973 165.359C250.907 165.66 251.909 165.677 252.854 165.408C253.798 165.139 254.641 164.597 255.276 163.849C255.912 163.101 256.312 162.181 256.425 161.206C256.537 160.231 256.359 159.244 255.911 158.371C255.463 157.497 254.766 156.776 253.908 156.299C253.051 155.821 252.071 155.609 251.092 155.689C249.781 155.795 248.565 156.419 247.713 157.421C246.861 158.424 246.442 159.724 246.548 161.036Z" fill="#B75F08"/>
<path d="M249.786 157.936C249.608 158.392 249.574 158.891 249.689 159.366C249.804 159.842 250.062 160.27 250.428 160.595C250.795 160.919 251.251 161.123 251.737 161.179C252.223 161.235 252.715 161.141 253.145 160.909C253.576 160.677 253.925 160.318 254.145 159.882C254.365 159.445 254.446 158.951 254.377 158.467C254.308 157.983 254.092 157.531 253.758 157.174C253.424 156.817 252.989 156.57 252.51 156.468C251.954 156.306 251.357 156.37 250.847 156.644C250.338 156.919 249.956 157.383 249.786 157.936Z" fill="#D67116"/>
<path d="M247.918 169.985C247.998 170.963 248.367 171.895 248.976 172.663C249.586 173.432 250.409 174.002 251.343 174.303C252.277 174.603 253.279 174.62 254.222 174.352C255.165 174.084 256.008 173.542 256.644 172.795C257.28 172.048 257.68 171.129 257.793 170.155C257.907 169.18 257.73 168.194 257.284 167.321C256.837 166.447 256.142 165.726 255.286 165.247C254.43 164.768 253.451 164.554 252.473 164.631C251.822 164.683 251.188 164.862 250.606 165.159C250.025 165.456 249.507 165.865 249.084 166.363C248.661 166.86 248.34 167.436 248.14 168.058C247.94 168.679 247.864 169.334 247.918 169.985Z" fill="#B75F08"/>
<path d="M251.156 166.885C250.982 167.339 250.952 167.836 251.069 168.308C251.186 168.78 251.445 169.204 251.81 169.525C252.176 169.845 252.631 170.046 253.114 170.1C253.597 170.155 254.085 170.06 254.513 169.828C254.94 169.596 255.287 169.24 255.505 168.805C255.724 168.371 255.804 167.88 255.736 167.399C255.667 166.918 255.453 166.469 255.121 166.113C254.79 165.757 254.358 165.511 253.883 165.408C253.325 165.244 252.725 165.307 252.214 165.583C251.703 165.86 251.322 166.328 251.156 166.885Z" fill="#D67116"/>
<path d="M246.098 179.051C246.177 180.029 246.544 180.962 247.152 181.731C247.761 182.501 248.585 183.073 249.518 183.375C250.452 183.677 251.454 183.695 252.399 183.427C253.343 183.159 254.186 182.618 254.823 181.871C255.459 181.124 255.86 180.205 255.974 179.23C256.088 178.255 255.911 177.269 255.464 176.395C255.018 175.521 254.322 174.799 253.465 174.32C252.609 173.841 251.629 173.628 250.651 173.705C249.34 173.815 248.126 174.438 247.273 175.439C246.42 176.441 245.997 177.739 246.098 179.051Z" fill="#B75F08"/>
<path d="M249.336 175.95C249.158 176.406 249.124 176.905 249.239 177.381C249.354 177.856 249.612 178.285 249.978 178.609C250.344 178.933 250.801 179.137 251.287 179.193C251.773 179.249 252.264 179.155 252.695 178.923C253.126 178.691 253.475 178.332 253.695 177.896C253.915 177.459 253.996 176.965 253.927 176.481C253.858 175.997 253.642 175.546 253.308 175.188C252.974 174.831 252.538 174.584 252.06 174.482C251.504 174.318 250.906 174.38 250.396 174.655C249.885 174.93 249.504 175.396 249.336 175.95Z" fill="#D67116"/>
<path d="M240.326 186.743C240.407 187.72 240.776 188.652 241.386 189.42C241.997 190.189 242.821 190.759 243.755 191.058C244.689 191.358 245.692 191.374 246.635 191.105C247.578 190.836 248.421 190.292 249.056 189.545C249.69 188.797 250.089 187.877 250.202 186.902C250.315 185.928 250.136 184.942 249.688 184.069C249.24 183.196 248.544 182.475 247.687 181.997C246.83 181.52 245.851 181.307 244.873 181.386C244.222 181.439 243.588 181.619 243.008 181.917C242.427 182.215 241.911 182.624 241.488 183.121C241.066 183.619 240.746 184.195 240.547 184.816C240.347 185.438 240.272 186.092 240.326 186.743Z" fill="#A85000"/>
<path d="M243.564 183.643C243.388 184.099 243.356 184.598 243.472 185.072C243.589 185.547 243.848 185.974 244.215 186.297C244.582 186.62 245.039 186.822 245.525 186.877C246.011 186.932 246.501 186.837 246.931 186.604C247.361 186.371 247.709 186.012 247.928 185.576C248.148 185.139 248.228 184.645 248.158 184.162C248.088 183.678 247.872 183.227 247.538 182.87C247.204 182.513 246.769 182.268 246.291 182.166C245.733 182.004 245.134 182.068 244.624 182.344C244.114 182.621 243.733 183.087 243.564 183.643Z" fill="#D67116"/>
<path d="M233.484 193.92C233.563 194.898 233.93 195.831 234.538 196.6C235.147 197.37 235.971 197.942 236.904 198.244C237.838 198.546 238.841 198.564 239.785 198.296C240.729 198.029 241.572 197.487 242.209 196.74C242.845 195.993 243.246 195.074 243.36 194.099C243.474 193.124 243.297 192.138 242.85 191.264C242.404 190.39 241.708 189.668 240.851 189.189C239.995 188.71 239.015 188.497 238.037 188.574C236.725 188.681 235.509 189.304 234.656 190.306C233.802 191.308 233.381 192.607 233.484 193.92Z" fill="#A85000"/>
<path d="M236.722 190.819C236.544 191.275 236.51 191.774 236.625 192.25C236.74 192.725 236.998 193.154 237.364 193.478C237.73 193.802 238.187 194.006 238.673 194.062C239.159 194.118 239.65 194.024 240.081 193.792C240.512 193.56 240.861 193.202 241.081 192.765C241.301 192.328 241.382 191.834 241.313 191.35C241.244 190.866 241.028 190.415 240.694 190.057C240.36 189.7 239.924 189.454 239.446 189.352C238.89 189.19 238.293 189.253 237.783 189.528C237.274 189.802 236.892 190.266 236.722 190.819Z" fill="#D67116"/>
<path d="M227.77 201.894C227.848 202.872 228.215 203.805 228.824 204.574C229.433 205.344 230.256 205.916 231.19 206.218C232.124 206.52 233.126 206.538 234.071 206.27C235.015 206.003 235.858 205.461 236.495 204.714C237.131 203.967 237.532 203.048 237.646 202.073C237.76 201.098 237.583 200.112 237.136 199.238C236.69 198.364 235.994 197.642 235.137 197.163C234.28 196.685 233.301 196.471 232.323 196.548C231.011 196.655 229.795 197.278 228.942 198.28C228.088 199.282 227.667 200.581 227.77 201.894Z" fill="#A85000"/>
<path d="M231.008 198.794C230.83 199.249 230.796 199.748 230.911 200.224C231.026 200.699 231.284 201.128 231.65 201.452C232.016 201.776 232.473 201.98 232.959 202.036C233.445 202.093 233.936 201.998 234.367 201.766C234.798 201.534 235.147 201.176 235.367 200.739C235.587 200.302 235.668 199.809 235.599 199.324C235.53 198.84 235.314 198.389 234.98 198.032C234.646 197.674 234.21 197.428 233.732 197.326C233.176 197.164 232.579 197.227 232.069 197.502C231.56 197.776 231.178 198.24 231.008 198.794Z" fill="#D67116"/>
<path d="M223.083 210.4C223.162 211.378 223.529 212.311 224.138 213.081C224.747 213.85 225.57 214.422 226.504 214.724C227.438 215.026 228.44 215.044 229.384 214.777C230.328 214.509 231.172 213.967 231.808 213.22C232.444 212.473 232.845 211.554 232.959 210.579C233.073 209.605 232.896 208.618 232.45 207.744C232.003 206.87 231.307 206.148 230.451 205.669C229.594 205.191 228.615 204.977 227.636 205.055C226.324 205.162 225.108 205.784 224.255 206.786C223.402 207.788 222.98 209.088 223.083 210.4Z" fill="#A85000"/>
<path d="M226.323 207.291C226.146 207.746 226.112 208.246 226.227 208.721C226.342 209.197 226.6 209.625 226.966 209.949C227.332 210.274 227.789 210.477 228.275 210.534C228.761 210.59 229.252 210.496 229.683 210.264C230.113 210.032 230.462 209.673 230.683 209.236C230.903 208.8 230.984 208.306 230.915 207.822C230.846 207.338 230.629 206.886 230.296 206.529C229.962 206.171 229.526 205.925 229.048 205.823C228.492 205.664 227.896 205.728 227.387 206.002C226.878 206.276 226.496 206.739 226.323 207.291Z" fill="#D67116"/>
<path d="M221.492 220.031C221.572 221.009 221.939 221.942 222.549 222.711C223.158 223.481 223.982 224.052 224.917 224.353C225.851 224.654 226.854 224.671 227.798 224.403C228.742 224.134 229.585 223.591 230.221 222.843C230.856 222.095 231.256 221.175 231.369 220.2C231.482 219.225 231.303 218.239 230.855 217.365C230.407 216.492 229.71 215.771 228.852 215.293C227.995 214.816 227.015 214.603 226.036 214.683C225.386 214.735 224.753 214.914 224.173 215.211C223.592 215.508 223.076 215.917 222.654 216.413C222.232 216.91 221.912 217.485 221.713 218.106C221.513 218.727 221.438 219.381 221.492 220.031Z" fill="#A85000"/>
<path d="M224.73 216.931C224.552 217.386 224.518 217.885 224.633 218.361C224.748 218.836 225.006 219.265 225.372 219.589C225.739 219.913 226.196 220.117 226.681 220.173C227.167 220.229 227.659 220.135 228.089 219.903C228.52 219.671 228.869 219.313 229.089 218.876C229.31 218.439 229.391 217.946 229.321 217.461C229.252 216.977 229.036 216.526 228.702 216.169C228.368 215.811 227.933 215.565 227.454 215.463C227.179 215.38 226.89 215.352 226.604 215.382C226.318 215.411 226.041 215.496 225.788 215.632C225.535 215.768 225.311 215.953 225.13 216.176C224.948 216.399 224.812 216.655 224.73 216.931Z" fill="#D67116"/>
<path d="M224.349 229.359C224.43 230.337 224.798 231.269 225.408 232.037C226.017 232.805 226.841 233.376 227.775 233.677C228.708 233.977 229.71 233.994 230.654 233.726C231.597 233.458 232.44 232.916 233.075 232.169C233.711 231.421 234.111 230.503 234.225 229.529C234.339 228.554 234.161 227.568 233.715 226.695C233.269 225.821 232.574 225.1 231.718 224.621C230.861 224.142 229.883 223.928 228.905 224.005C227.591 224.111 226.373 224.735 225.519 225.739C224.664 226.743 224.244 228.045 224.349 229.359Z" fill="#A85000"/>
<path d="M227.614 226.266C227.438 226.722 227.406 227.221 227.522 227.696C227.639 228.171 227.898 228.598 228.265 228.921C228.632 229.244 229.089 229.446 229.575 229.501C230.06 229.556 230.551 229.461 230.981 229.228C231.411 228.995 231.759 228.636 231.978 228.199C232.198 227.763 232.278 227.269 232.208 226.785C232.138 226.302 231.922 225.851 231.588 225.494C231.254 225.137 230.819 224.891 230.341 224.79C229.783 224.63 229.185 224.695 228.676 224.971C228.166 225.247 227.785 225.712 227.614 226.266Z" fill="#D67116"/>
<path d="M232.119 235.409C232.198 236.387 232.565 237.32 233.174 238.09C233.783 238.859 234.606 239.431 235.54 239.733C236.474 240.035 237.476 240.053 238.42 239.785C239.364 239.518 240.208 238.976 240.844 238.229C241.481 237.482 241.881 236.563 241.995 235.588C242.109 234.613 241.932 233.627 241.486 232.753C241.039 231.879 240.344 231.157 239.487 230.678C238.63 230.2 237.651 229.986 236.672 230.064C235.361 230.173 234.147 230.796 233.294 231.798C232.441 232.799 232.019 234.097 232.119 235.409Z" fill="#A85000"/>
<path d="M235.357 232.309C235.179 232.764 235.145 233.264 235.26 233.739C235.375 234.215 235.633 234.643 236 234.967C236.366 235.291 236.823 235.495 237.309 235.552C237.794 235.608 238.286 235.514 238.716 235.282C239.147 235.05 239.496 234.691 239.716 234.254C239.937 233.818 240.018 233.324 239.949 232.84C239.879 232.356 239.663 231.904 239.329 231.547C238.995 231.189 238.56 230.943 238.082 230.841C237.526 230.677 236.927 230.739 236.417 231.014C235.907 231.289 235.526 231.754 235.357 232.309Z" fill="#D67116"/>
<path d="M241.194 231.723C241.275 232.7 241.643 233.632 242.253 234.4C242.862 235.169 243.686 235.739 244.62 236.04C245.553 236.341 246.555 236.358 247.499 236.089C248.442 235.821 249.285 235.279 249.92 234.532C250.556 233.785 250.956 232.866 251.07 231.892C251.184 230.918 251.006 229.932 250.56 229.058C250.114 228.185 249.419 227.463 248.563 226.984C247.706 226.506 246.728 226.291 245.75 226.369C245.099 226.42 244.464 226.599 243.883 226.897C243.301 227.194 242.784 227.603 242.361 228.1C241.938 228.597 241.617 229.173 241.417 229.795C241.216 230.417 241.141 231.072 241.194 231.723Z" fill="#A85000"/>
<path d="M244.432 228.623C244.259 229.077 244.228 229.573 244.345 230.045C244.462 230.517 244.721 230.942 245.087 231.262C245.452 231.583 245.907 231.784 246.391 231.838C246.874 231.892 247.362 231.797 247.789 231.565C248.217 231.334 248.563 230.977 248.782 230.543C249.001 230.108 249.081 229.618 249.012 229.136C248.944 228.655 248.729 228.206 248.398 227.85C248.067 227.494 247.634 227.249 247.159 227.146C246.602 226.981 246.002 227.044 245.491 227.321C244.98 227.598 244.599 228.066 244.432 228.623Z" fill="#D67116"/>
<path d="M242.74 222.013C242.819 222.993 243.187 223.928 243.797 224.7C244.407 225.471 245.232 226.044 246.168 226.346C247.104 226.649 248.108 226.667 249.054 226.398C250 226.129 250.846 225.586 251.483 224.837C252.12 224.088 252.521 223.167 252.635 222.19C252.748 221.213 252.57 220.224 252.122 219.349C251.673 218.473 250.976 217.751 250.117 217.272C249.257 216.793 248.276 216.58 247.295 216.659C245.981 216.765 244.764 217.389 243.909 218.393C243.055 219.397 242.634 220.699 242.74 222.013Z" fill="#A85000"/>
<path d="M245.978 218.913C245.802 219.369 245.77 219.868 245.886 220.343C246.003 220.817 246.262 221.245 246.629 221.568C246.996 221.891 247.453 222.093 247.939 222.148C248.425 222.203 248.915 222.107 249.345 221.875C249.775 221.642 250.123 221.283 250.342 220.846C250.562 220.409 250.642 219.916 250.572 219.432C250.502 218.948 250.286 218.498 249.952 218.141C249.618 217.784 249.183 217.538 248.705 217.436C248.147 217.274 247.548 217.338 247.038 217.615C246.528 217.891 246.147 218.358 245.978 218.913Z" fill="#D67116"/>
<path d="M245.321 212.381C245.4 213.362 245.767 214.297 246.377 215.068C246.988 215.839 247.813 216.412 248.749 216.714C249.685 217.017 250.689 217.035 251.635 216.766C252.581 216.497 253.426 215.954 254.064 215.205C254.701 214.456 255.102 213.535 255.216 212.558C255.329 211.581 255.151 210.592 254.702 209.717C254.254 208.842 253.556 208.119 252.697 207.64C251.838 207.161 250.856 206.948 249.876 207.027C248.562 207.134 247.344 207.757 246.49 208.761C245.636 209.765 245.215 211.067 245.321 212.381Z" fill="#A85000"/>
<path d="M248.549 209.317C248.373 209.773 248.341 210.272 248.458 210.746C248.574 211.221 248.833 211.649 249.2 211.971C249.567 212.294 250.024 212.497 250.51 212.552C250.996 212.606 251.487 212.511 251.916 212.278C252.346 212.046 252.694 211.687 252.914 211.25C253.133 210.813 253.213 210.32 253.143 209.836C253.074 209.352 252.857 208.901 252.523 208.545C252.189 208.188 251.754 207.942 251.276 207.84C250.719 207.678 250.12 207.742 249.609 208.018C249.099 208.295 248.718 208.761 248.549 209.317Z" fill="#D67116"/>
<path d="M246.987 202.685C247.067 203.663 247.435 204.594 248.045 205.363C248.654 206.131 249.478 206.702 250.412 207.002C251.345 207.303 252.347 207.32 253.291 207.052C254.234 206.784 255.077 206.242 255.713 205.495C256.348 204.747 256.748 203.829 256.862 202.855C256.976 201.88 256.798 200.894 256.352 200.021C255.906 199.147 255.211 198.425 254.355 197.947C253.499 197.468 252.52 197.254 251.542 197.331C250.228 197.437 249.01 198.061 248.156 199.065C247.302 200.069 246.881 201.371 246.987 202.685Z" fill="#A85000"/>
<path d="M250.224 199.585C250.048 200.041 250.017 200.54 250.133 201.015C250.249 201.489 250.509 201.917 250.876 202.24C251.243 202.562 251.7 202.765 252.185 202.82C252.671 202.875 253.162 202.779 253.592 202.547C254.021 202.314 254.369 201.955 254.589 201.518C254.808 201.081 254.889 200.588 254.819 200.104C254.749 199.62 254.532 199.17 254.199 198.813C253.865 198.456 253.429 198.21 252.951 198.108C252.394 197.949 251.796 198.014 251.286 198.29C250.776 198.566 250.395 199.031 250.224 199.585Z" fill="#D67116"/>
<path d="M250.39 193.464C250.468 194.442 250.835 195.375 251.444 196.145C252.053 196.914 252.876 197.486 253.81 197.788C254.744 198.09 255.746 198.108 256.691 197.841C257.635 197.573 258.478 197.031 259.115 196.284C259.751 195.537 260.152 194.618 260.266 193.643C260.38 192.669 260.203 191.682 259.756 190.808C259.31 189.934 258.614 189.212 257.757 188.733C256.9 188.255 255.921 188.041 254.943 188.119C253.631 188.226 252.415 188.848 251.562 189.85C250.708 190.852 250.287 192.152 250.39 193.464Z" fill="#A85000"/>
<path d="M253.625 190.373C253.449 190.829 253.417 191.328 253.534 191.802C253.65 192.277 253.909 192.705 254.276 193.027C254.643 193.35 255.101 193.553 255.586 193.607C256.072 193.662 256.563 193.567 256.992 193.334C257.422 193.101 257.77 192.743 257.99 192.306C258.209 191.869 258.289 191.376 258.22 190.892C258.15 190.408 257.933 189.957 257.599 189.6C257.265 189.244 256.83 188.998 256.352 188.896C255.795 188.734 255.196 188.798 254.685 189.074C254.175 189.351 253.794 189.817 253.625 190.373Z" fill="#D67116"/>
<path d="M257.591 186.973C257.671 187.95 258.04 188.882 258.651 189.65C259.261 190.419 260.086 190.989 261.02 191.288C261.954 191.588 262.956 191.605 263.899 191.335C264.843 191.066 265.685 190.523 266.32 189.775C266.955 189.027 267.354 188.107 267.466 187.133C267.579 186.158 267.4 185.172 266.953 184.299C266.505 183.426 265.809 182.705 264.951 182.228C264.094 181.75 263.115 181.537 262.137 181.616C261.487 181.669 260.853 181.849 260.272 182.147C259.691 182.445 259.175 182.854 258.753 183.352C258.33 183.849 258.01 184.425 257.811 185.046C257.612 185.668 257.537 186.322 257.591 186.973Z" fill="#B75F08"/>
<path d="M260.828 183.873C260.652 184.329 260.62 184.828 260.737 185.302C260.853 185.777 261.113 186.205 261.48 186.527C261.847 186.85 262.304 187.053 262.789 187.108C263.275 187.162 263.766 187.067 264.196 186.834C264.625 186.602 264.973 186.243 265.193 185.806C265.412 185.369 265.492 184.876 265.423 184.392C265.353 183.908 265.136 183.457 264.802 183.101C264.469 182.744 264.033 182.498 263.555 182.396C262.998 182.236 262.4 182.302 261.89 182.578C261.38 182.854 260.999 183.319 260.828 183.873Z" fill="#D67116"/>
<path d="M265.05 180.437C265.131 181.415 265.5 182.347 266.111 183.115C266.721 183.883 267.545 184.453 268.48 184.753C269.414 185.053 270.416 185.069 271.359 184.799C272.303 184.53 273.145 183.987 273.78 183.239C274.415 182.491 274.814 181.571 274.926 180.597C275.039 179.622 274.86 178.636 274.413 177.763C273.965 176.89 273.269 176.169 272.411 175.692C271.554 175.214 270.575 175.002 269.597 175.081C268.947 175.133 268.313 175.313 267.732 175.611C267.151 175.909 266.635 176.318 266.213 176.816C265.79 177.313 265.47 177.889 265.271 178.511C265.072 179.132 264.997 179.787 265.05 180.437Z" fill="#B75F08"/>
<path d="M268.271 177.332C268.095 177.788 268.063 178.287 268.179 178.762C268.296 179.237 268.555 179.664 268.922 179.987C269.289 180.31 269.746 180.512 270.232 180.567C270.717 180.622 271.208 180.527 271.638 180.294C272.068 180.061 272.416 179.702 272.635 179.265C272.854 178.829 272.935 178.335 272.865 177.851C272.795 177.368 272.579 176.917 272.245 176.56C271.911 176.203 271.475 175.957 270.997 175.856C270.44 175.696 269.842 175.761 269.332 176.037C268.823 176.313 268.441 176.778 268.271 177.332Z" fill="#D67116"/>
<path d="M273.078 175.014C273.159 175.992 273.528 176.924 274.138 177.692C274.749 178.46 275.573 179.03 276.507 179.33C277.441 179.63 278.444 179.646 279.387 179.377C280.33 179.107 281.173 178.564 281.808 177.816C282.443 177.068 282.841 176.149 282.954 175.174C283.067 174.2 282.888 173.214 282.44 172.34C281.993 171.467 281.296 170.747 280.439 170.269C279.582 169.792 278.603 169.579 277.625 169.658C276.312 169.766 275.096 170.391 274.243 171.396C273.391 172.4 272.972 173.701 273.078 175.014Z" fill="#B75F08"/>
<path d="M276.316 171.914C276.14 172.37 276.108 172.869 276.225 173.344C276.341 173.819 276.6 174.246 276.967 174.569C277.334 174.892 277.791 175.094 278.277 175.149C278.763 175.204 279.253 175.109 279.683 174.876C280.113 174.643 280.461 174.284 280.68 173.848C280.9 173.411 280.98 172.917 280.91 172.434C280.84 171.95 280.624 171.499 280.29 171.142C279.956 170.785 279.521 170.539 279.043 170.438C278.485 170.275 277.887 170.34 277.376 170.616C276.866 170.892 276.485 171.359 276.316 171.914Z" fill="#D67116"/>
<path d="M278.633 166.855C278.711 167.833 279.078 168.766 279.687 169.536C280.296 170.305 281.119 170.877 282.053 171.179C282.987 171.481 283.989 171.499 284.933 171.232C285.877 170.964 286.721 170.422 287.357 169.675C287.994 168.928 288.394 168.009 288.509 167.034C288.623 166.06 288.445 165.073 287.999 164.199C287.552 163.325 286.857 162.603 286 162.124C285.143 161.646 284.164 161.432 283.186 161.51C282.536 161.561 281.902 161.741 281.321 162.038C280.741 162.334 280.224 162.742 279.801 163.239C279.379 163.735 279.058 164.31 278.857 164.931C278.657 165.551 278.58 166.205 278.633 166.855Z" fill="#B75F08"/>
<path d="M281.888 163.76C281.71 164.215 281.677 164.714 281.791 165.19C281.906 165.665 282.164 166.094 282.531 166.418C282.897 166.742 283.354 166.946 283.84 167.002C284.325 167.059 284.817 166.964 285.247 166.732C285.678 166.5 286.027 166.142 286.247 165.705C286.468 165.268 286.549 164.775 286.48 164.291C286.41 163.806 286.194 163.355 285.86 162.998C285.526 162.64 285.091 162.394 284.613 162.292C284.057 162.127 283.458 162.189 282.948 162.464C282.438 162.739 282.057 163.205 281.888 163.76Z" fill="#D67116"/>
<path d="M285.657 159.85C285.738 160.828 286.107 161.76 286.717 162.528C287.328 163.296 288.152 163.866 289.086 164.166C290.02 164.466 291.022 164.482 291.966 164.213C292.909 163.943 293.751 163.4 294.386 162.652C295.021 161.904 295.42 160.985 295.533 160.01C295.645 159.036 295.467 158.049 295.019 157.176C294.571 156.303 293.875 155.583 293.018 155.105C292.161 154.628 291.181 154.415 290.203 154.494C289.552 154.545 288.918 154.725 288.337 155.022C287.756 155.32 287.239 155.729 286.816 156.227C286.394 156.725 286.074 157.301 285.875 157.923C285.676 158.545 285.602 159.2 285.657 159.85Z" fill="#B75F08"/>
<path d="M288.886 156.748C288.71 157.204 288.678 157.703 288.794 158.178C288.911 158.652 289.17 159.08 289.537 159.403C289.904 159.725 290.361 159.928 290.847 159.983C291.332 160.038 291.823 159.942 292.253 159.709C292.683 159.477 293.031 159.118 293.25 158.681C293.47 158.244 293.55 157.751 293.48 157.267C293.41 156.783 293.194 156.333 292.86 155.976C292.526 155.619 292.091 155.373 291.613 155.271C291.055 155.109 290.456 155.173 289.946 155.449C289.435 155.726 289.055 156.192 288.886 156.748Z" fill="#D67116"/>
<path d="M289.789 151.034C289.868 152.014 290.237 152.949 290.848 153.72C291.459 154.491 292.284 155.064 293.221 155.365C294.157 155.667 295.162 155.684 296.108 155.414C297.054 155.144 297.899 154.6 298.535 153.85C299.172 153.1 299.572 152.178 299.684 151.201C299.797 150.224 299.617 149.235 299.167 148.36C298.717 147.485 298.018 146.763 297.158 146.286C296.298 145.808 295.316 145.596 294.335 145.677C293.023 145.786 291.807 146.411 290.954 147.415C290.102 148.419 289.683 149.721 289.789 151.034Z" fill="#B75F08"/>
<path d="M293.029 147.925C292.853 148.381 292.821 148.88 292.938 149.354C293.054 149.829 293.313 150.257 293.68 150.58C294.047 150.902 294.505 151.105 294.99 151.16C295.476 151.215 295.967 151.119 296.397 150.886C296.826 150.654 297.174 150.295 297.394 149.858C297.613 149.421 297.693 148.928 297.624 148.444C297.554 147.96 297.337 147.51 297.003 147.153C296.67 146.796 296.234 146.55 295.756 146.448C295.199 146.286 294.6 146.35 294.089 146.626C293.579 146.903 293.198 147.369 293.029 147.925Z" fill="#D67116"/>
<path d="M293.411 142.061C293.492 143.039 293.861 143.971 294.471 144.739C295.082 145.507 295.906 146.077 296.84 146.377C297.774 146.677 298.776 146.693 299.72 146.424C300.663 146.154 301.506 145.611 302.14 144.863C302.775 144.115 303.174 143.196 303.287 142.221C303.399 141.247 303.221 140.261 302.773 139.387C302.325 138.514 301.629 137.794 300.772 137.316C299.915 136.839 298.935 136.626 297.957 136.705C297.307 136.756 296.672 136.936 296.091 137.233C295.51 137.531 294.993 137.94 294.57 138.438C294.148 138.936 293.828 139.512 293.629 140.134C293.43 140.756 293.356 141.411 293.411 142.061Z" fill="#B75F08"/>
<path d="M296.596 138.947C296.42 139.403 296.388 139.902 296.504 140.377C296.621 140.852 296.88 141.279 297.247 141.602C297.614 141.925 298.071 142.127 298.557 142.182C299.042 142.237 299.533 142.141 299.963 141.909C300.393 141.676 300.741 141.317 300.96 140.88C301.179 140.444 301.26 139.95 301.19 139.466C301.12 138.983 300.904 138.532 300.57 138.175C300.236 137.818 299.8 137.572 299.322 137.47C298.765 137.308 298.166 137.372 297.656 137.649C297.145 137.925 296.764 138.392 296.596 138.947Z" fill="#D67116"/>
<path d="M293.941 132.165C294.02 133.144 294.387 134.077 294.995 134.846C295.604 135.616 296.428 136.188 297.361 136.49C298.295 136.792 299.298 136.81 300.242 136.542C301.186 136.274 302.029 135.733 302.666 134.986C303.302 134.239 303.703 133.32 303.817 132.345C303.931 131.37 303.754 130.383 303.307 129.51C302.861 128.636 302.165 127.914 301.308 127.435C300.452 126.956 299.472 126.742 298.494 126.82C297.182 126.927 295.966 127.55 295.113 128.552C294.259 129.554 293.838 130.853 293.941 132.165Z" fill="#B75F08"/>
<path d="M297.174 129.083C296.996 129.539 296.962 130.038 297.077 130.514C297.192 130.989 297.45 131.418 297.816 131.742C298.183 132.066 298.639 132.27 299.125 132.326C299.611 132.382 300.103 132.288 300.533 132.056C300.964 131.824 301.313 131.465 301.533 131.029C301.753 130.592 301.834 130.098 301.765 129.614C301.696 129.13 301.48 128.679 301.146 128.321C300.812 127.964 300.377 127.717 299.898 127.615C299.342 127.451 298.744 127.513 298.234 127.788C297.723 128.063 297.342 128.529 297.174 129.083Z" fill="#D67116"/>
<path d="M294.936 122.166C295.015 123.144 295.382 124.077 295.991 124.847C296.599 125.616 297.423 126.188 298.357 126.49C299.29 126.792 300.293 126.81 301.237 126.543C302.181 126.275 303.025 125.733 303.661 124.986C304.297 124.239 304.698 123.32 304.812 122.345C304.926 121.371 304.749 120.384 304.302 119.51C303.856 118.636 303.16 117.914 302.304 117.435C301.447 116.957 300.468 116.743 299.489 116.821C298.178 116.93 296.964 117.553 296.111 118.555C295.258 119.556 294.836 120.854 294.936 122.166Z" fill="#B75F08"/>
<path d="M298.192 119.033C298.014 119.488 297.981 119.988 298.096 120.463C298.21 120.938 298.468 121.367 298.835 121.691C299.201 122.015 299.658 122.219 300.144 122.276C300.63 122.332 301.121 122.237 301.552 122.005C301.982 121.773 302.331 121.415 302.552 120.978C302.772 120.542 302.853 120.048 302.784 119.564C302.714 119.079 302.498 118.628 302.164 118.271C301.831 117.913 301.395 117.667 300.917 117.565C300.361 117.401 299.762 117.463 299.252 117.738C298.742 118.013 298.361 118.478 298.192 119.033Z" fill="#D67116"/>
<path d="M292.247 113.063C292.326 114.041 292.694 114.974 293.303 115.744C293.913 116.513 294.737 117.085 295.671 117.386C296.606 117.687 297.608 117.704 298.552 117.435C299.496 117.166 300.34 116.624 300.975 115.876C301.611 115.128 302.01 114.208 302.123 113.233C302.236 112.258 302.057 111.271 301.61 110.398C301.162 109.524 300.465 108.803 299.607 108.326C298.749 107.848 297.769 107.636 296.791 107.716C295.479 107.822 294.264 108.446 293.412 109.448C292.56 110.451 292.141 111.751 292.247 113.063Z" fill="#B75F08"/>
<path d="M295.485 109.963C295.307 110.418 295.273 110.918 295.388 111.393C295.503 111.869 295.761 112.297 296.127 112.621C296.493 112.946 296.95 113.149 297.436 113.206C297.922 113.262 298.413 113.168 298.844 112.936C299.275 112.704 299.624 112.345 299.844 111.908C300.064 111.472 300.145 110.978 300.076 110.494C300.007 110.01 299.791 109.558 299.457 109.201C299.123 108.843 298.687 108.597 298.209 108.495C297.653 108.333 297.056 108.396 296.546 108.671C296.037 108.946 295.655 109.41 295.485 109.963Z" fill="#D67116"/>
<path d="M287.411 104.726C287.492 105.704 287.86 106.636 288.47 107.404C289.079 108.173 289.903 108.743 290.836 109.044C291.77 109.344 292.772 109.362 293.715 109.093C294.659 108.825 295.502 108.283 296.137 107.536C296.773 106.789 297.173 105.87 297.287 104.896C297.401 103.922 297.223 102.935 296.777 102.062C296.331 101.188 295.636 100.467 294.779 99.988C293.923 99.5093 292.945 99.2951 291.967 99.3723C290.653 99.4785 289.435 100.102 288.581 101.106C287.726 102.11 287.306 103.412 287.411 104.726Z" fill="#B75F08"/>
<path d="M290.654 101.609C290.478 102.065 290.446 102.564 290.562 103.038C290.679 103.513 290.938 103.94 291.305 104.263C291.672 104.586 292.129 104.789 292.615 104.843C293.1 104.898 293.591 104.803 294.021 104.57C294.451 104.337 294.799 103.978 295.018 103.542C295.238 103.105 295.318 102.612 295.248 102.128C295.178 101.644 294.962 101.193 294.628 100.836C294.294 100.48 293.859 100.234 293.381 100.132C292.823 99.9697 292.224 100.034 291.714 100.31C291.203 100.587 290.823 101.053 290.654 101.609Z" fill="#D67116"/>
</svg>
