<svg width="340" height="335" viewBox="0 0 340 335" fill="none" xmlns="http://www.w3.org/2000/svg">
<rect y="0.316895" width="340" height="334" rx="23" fill="#F7FFFD"/>
<mask id="mask0_41_14" style="mask-type:alpha" maskUnits="userSpaceOnUse" x="0" y="0" width="337" height="331">
<rect width="337" height="330.229" rx="23" fill="#D9D9D9"/>
</mask>
<g mask="url(#mask0_41_14)">
<path d="M242.664 227.342C354.044 102.016 420.301 128.297 460.241 168.628L438.657 350.314L-108.524 367.268L-128.086 234.888C-37.0889 292.275 144.537 337.755 242.664 227.342Z" fill="#D8FFF9"/>
</g>
<path d="M43.988 79.3169V54.1169H49.82V74.5649H62.456V79.3169H43.988ZM65.3186 79.3169V59.9489H70.9346V79.3169H65.3186ZM68.1266 57.2489C67.0946 57.2489 66.2546 56.9489 65.6066 56.3489C64.9586 55.7489 64.6346 55.0049 64.6346 54.1169C64.6346 53.2289 64.9586 52.4849 65.6066 51.8849C66.2546 51.2849 67.0946 50.9849 68.1266 50.9849C69.1586 50.9849 69.9986 51.2729 70.6466 51.8489C71.2946 52.4009 71.6186 53.1209 71.6186 54.0089C71.6186 54.9449 71.2946 55.7249 70.6466 56.3489C70.0226 56.9489 69.1826 57.2489 68.1266 57.2489ZM82.6627 79.6049C81.0067 79.6049 79.4107 79.4129 77.8747 79.0289C76.3627 78.6209 75.1627 78.1169 74.2747 77.5169L76.1467 73.4849C77.0347 74.0369 78.0787 74.4929 79.2787 74.8529C80.5027 75.1889 81.7027 75.3569 82.8787 75.3569C84.1747 75.3569 85.0867 75.2009 85.6147 74.8889C86.1667 74.5769 86.4427 74.1449 86.4427 73.5929C86.4427 73.1369 86.2267 72.8009 85.7947 72.5849C85.3867 72.3449 84.8347 72.1649 84.1387 72.0449C83.4427 71.9249 82.6747 71.8049 81.8347 71.6849C81.0187 71.5649 80.1907 71.4089 79.3507 71.2169C78.5107 71.0009 77.7427 70.6889 77.0467 70.2809C76.3507 69.8729 75.7867 69.3209 75.3547 68.6249C74.9467 67.9289 74.7427 67.0289 74.7427 65.9249C74.7427 64.7009 75.0907 63.6209 75.7867 62.6849C76.5067 61.7489 77.5387 61.0169 78.8827 60.4889C80.2267 59.9369 81.8347 59.6609 83.7067 59.6609C85.0267 59.6609 86.3707 59.8049 87.7387 60.0929C89.1067 60.3809 90.2467 60.8009 91.1587 61.3529L89.2867 65.3489C88.3507 64.7969 87.4027 64.4249 86.4427 64.2329C85.5067 64.0169 84.5947 63.9089 83.7067 63.9089C82.4587 63.9089 81.5467 64.0769 80.9707 64.4129C80.3947 64.7489 80.1067 65.1809 80.1067 65.7089C80.1067 66.1889 80.3107 66.5489 80.7187 66.7889C81.1507 67.0289 81.7147 67.2209 82.4107 67.3649C83.1067 67.5089 83.8627 67.6409 84.6787 67.7609C85.5187 67.8569 86.3587 68.0129 87.1987 68.2289C88.0387 68.4449 88.7947 68.7569 89.4667 69.1649C90.1627 69.5489 90.7267 70.0889 91.1587 70.7849C91.5907 71.4569 91.8067 72.3449 91.8067 73.4489C91.8067 74.6489 91.4467 75.7169 90.7267 76.6529C90.0067 77.5649 88.9627 78.2849 87.5947 78.8129C86.2507 79.3409 84.6067 79.6049 82.6627 79.6049ZM103.192 79.6049C100.912 79.6049 99.1357 79.0289 97.8637 77.8769C96.5917 76.7009 95.9557 74.9609 95.9557 72.6569V55.6649H101.572V72.5849C101.572 73.4009 101.788 74.0369 102.22 74.4929C102.652 74.9249 103.24 75.1409 103.984 75.1409C104.872 75.1409 105.628 74.9009 106.252 74.4209L107.764 78.3809C107.188 78.7889 106.492 79.1009 105.676 79.3169C104.884 79.5089 104.056 79.6049 103.192 79.6049ZM92.9677 64.7009V60.3809H106.396V64.7009H92.9677ZM119.931 79.6049C117.723 79.6049 115.779 79.1729 114.099 78.3089C112.443 77.4449 111.159 76.2689 110.247 74.7809C109.335 73.2689 108.879 71.5529 108.879 69.6329C108.879 67.6889 109.323 65.9729 110.211 64.4849C111.123 62.9729 112.359 61.7969 113.919 60.9569C115.479 60.0929 117.243 59.6609 119.211 59.6609C121.107 59.6609 122.811 60.0689 124.323 60.8849C125.859 61.6769 127.071 62.8289 127.959 64.3409C128.847 65.8289 129.291 67.6169 129.291 69.7049C129.291 69.9209 129.279 70.1729 129.255 70.4609C129.231 70.7249 129.207 70.9769 129.183 71.2169H113.451V67.9409H126.231L124.071 68.9129C124.071 67.9049 123.867 67.0289 123.459 66.2849C123.051 65.5409 122.487 64.9649 121.767 64.5569C121.047 64.1249 120.207 63.9089 119.247 63.9089C118.287 63.9089 117.435 64.1249 116.691 64.5569C115.971 64.9649 115.407 65.5529 114.999 66.3209C114.591 67.0649 114.387 67.9529 114.387 68.9849V69.8489C114.387 70.9049 114.615 71.8409 115.071 72.6569C115.551 73.4489 116.211 74.0609 117.051 74.4929C117.915 74.9009 118.923 75.1049 120.075 75.1049C121.107 75.1049 122.007 74.9489 122.775 74.6369C123.567 74.3249 124.287 73.8569 124.935 73.2329L127.923 76.4729C127.035 77.4809 125.919 78.2609 124.575 78.8129C123.231 79.3409 121.683 79.6049 119.931 79.6049ZM144.802 59.6609C146.338 59.6609 147.706 59.9729 148.906 60.5969C150.13 61.1969 151.09 62.1329 151.786 63.4049C152.482 64.6529 152.83 66.2609 152.83 68.2289V79.3169H147.214V69.0929C147.214 67.5329 146.866 66.3809 146.17 65.6369C145.498 64.8929 144.538 64.5209 143.29 64.5209C142.402 64.5209 141.598 64.7129 140.878 65.0969C140.182 65.4569 139.63 66.0209 139.222 66.7889C138.838 67.5569 138.646 68.5409 138.646 69.7409V79.3169H133.03V59.9489H138.394V65.3129L137.386 63.6929C138.082 62.3969 139.078 61.4009 140.374 60.7049C141.67 60.0089 143.146 59.6609 144.802 59.6609ZM157.92 79.3169V59.9489H163.536V79.3169H157.92ZM160.728 57.2489C159.696 57.2489 158.856 56.9489 158.208 56.3489C157.56 55.7489 157.236 55.0049 157.236 54.1169C157.236 53.2289 157.56 52.4849 158.208 51.8849C158.856 51.2849 159.696 50.9849 160.728 50.9849C161.76 50.9849 162.6 51.2729 163.248 51.8489C163.896 52.4009 164.22 53.1209 164.22 54.0089C164.22 54.9449 163.896 55.7249 163.248 56.3489C162.624 56.9489 161.784 57.2489 160.728 57.2489ZM180.52 59.6609C182.056 59.6609 183.424 59.9729 184.624 60.5969C185.848 61.1969 186.808 62.1329 187.504 63.4049C188.2 64.6529 188.548 66.2609 188.548 68.2289V79.3169H182.932V69.0929C182.932 67.5329 182.584 66.3809 181.888 65.6369C181.216 64.8929 180.256 64.5209 179.008 64.5209C178.12 64.5209 177.316 64.7129 176.596 65.0969C175.9 65.4569 175.348 66.0209 174.94 66.7889C174.556 67.5569 174.364 68.5409 174.364 69.7409V79.3169H168.748V59.9489H174.112V65.3129L173.104 63.6929C173.8 62.3969 174.796 61.4009 176.092 60.7049C177.388 60.0089 178.864 59.6609 180.52 59.6609ZM202.888 86.5889C201.064 86.5889 199.3 86.3609 197.596 85.9049C195.916 85.4729 194.512 84.8129 193.384 83.9249L195.616 79.8929C196.432 80.5649 197.464 81.0929 198.712 81.4769C199.984 81.8849 201.232 82.0889 202.456 82.0889C204.448 82.0889 205.888 81.6449 206.776 80.7569C207.688 79.8689 208.144 78.5489 208.144 76.7969V73.8809L208.504 69.0209L208.432 64.1249V59.9489H213.76V76.0769C213.76 79.6769 212.824 82.3289 210.952 84.0329C209.08 85.7369 206.392 86.5889 202.888 86.5889ZM202.024 78.3809C200.224 78.3809 198.592 77.9969 197.128 77.2289C195.688 76.4369 194.524 75.3449 193.636 73.9529C192.772 72.5369 192.34 70.8929 192.34 69.0209C192.34 67.1249 192.772 65.4809 193.636 64.0889C194.524 62.6729 195.688 61.5809 197.128 60.8129C198.592 60.0449 200.224 59.6609 202.024 59.6609C203.656 59.6609 205.096 59.9969 206.344 60.6689C207.592 61.3169 208.564 62.3369 209.26 63.7289C209.956 65.0969 210.304 66.8609 210.304 69.0209C210.304 71.1569 209.956 72.9209 209.26 74.3129C208.564 75.6809 207.592 76.7009 206.344 77.3729C205.096 78.0449 203.656 78.3809 202.024 78.3809ZM203.14 73.7729C204.124 73.7729 205 73.5809 205.768 73.1969C206.536 72.7889 207.136 72.2249 207.568 71.5049C208 70.7849 208.216 69.9569 208.216 69.0209C208.216 68.0609 208 67.2329 207.568 66.5369C207.136 65.8169 206.536 65.2649 205.768 64.8809C205 64.4729 204.124 64.2689 203.14 64.2689C202.156 64.2689 201.28 64.4729 200.512 64.8809C199.744 65.2649 199.132 65.8169 198.676 66.5369C198.244 67.2329 198.028 68.0609 198.028 69.0209C198.028 69.9569 198.244 70.7849 198.676 71.5049C199.132 72.2249 199.744 72.7889 200.512 73.1969C201.28 73.5809 202.156 73.7729 203.14 73.7729Z" fill="#004B40"/>
<path d="M269.293 234.295V295.693C276.927 295.599 283.534 291.28 286.895 284.954C287.526 285.327 288.226 285.584 289.043 285.584H289.884C291.354 285.584 292.568 284.79 293.315 283.787C294.062 282.783 294.459 281.545 294.459 280.215V275.266V267.865V221.619H292.195C290.957 221.619 289.977 220.615 289.977 219.378C289.977 219.144 289.977 218.887 289.977 218.63C289.977 183.449 261.473 154.945 226.292 154.945C191.134 154.945 162.606 183.449 162.606 218.63C162.606 218.887 162.606 219.121 162.606 219.378C162.63 220.615 161.626 221.619 160.389 221.619H158.147V280.215C158.147 281.545 158.544 282.783 159.291 283.787C160.015 284.79 161.252 285.584 162.723 285.584H163.587C164.334 285.584 164.987 285.374 165.594 285.047C168.98 291.304 175.563 295.599 183.173 295.693V234.295C177.174 234.365 171.851 237.05 168.186 241.252V223.79C170.053 223.44 171.431 221.875 171.617 219.961L171.664 219.751V219.074C171.664 203.97 177.781 190.313 187.679 180.415C197.577 170.516 211.234 164.4 226.338 164.4C241.443 164.4 255.099 170.516 264.998 180.415C274.896 190.313 281.012 203.97 281.012 219.074V219.541V219.564C281.012 221.642 282.483 223.393 284.491 223.79V241.462C280.802 237.143 275.363 234.365 269.293 234.295Z" fill="#004B40"/>
<path d="M292.195 221.619H294.459H296.49C297.704 221.619 298.685 220.638 298.708 219.448C298.708 219.167 298.708 218.911 298.708 218.63C298.708 178.64 266.282 146.214 226.292 146.214C186.302 146.214 153.875 178.64 153.875 218.63C153.875 218.911 153.875 219.167 153.875 219.448C153.899 220.661 154.879 221.619 156.093 221.619H158.124H160.389C161.626 221.619 162.63 220.615 162.606 219.378C162.606 219.144 162.606 218.887 162.606 218.63C162.606 183.449 191.111 154.945 226.292 154.945C261.473 154.945 289.977 183.449 289.977 218.63C289.977 218.887 289.977 219.121 289.977 219.378C289.977 220.615 290.957 221.619 292.195 221.619Z" fill="#AAD4C8"/>
<path d="M150 268.846C150 272.884 153.268 276.176 157.307 276.223V253.788C153.268 253.835 150 257.126 150 261.188V268.846Z" fill="#616E7D"/>
<path d="M295.323 276.223C299.362 276.176 302.63 272.884 302.63 268.846V261.188C302.63 257.126 299.362 253.858 295.323 253.788V276.223Z" fill="#616E7D"/>
<path d="M184.457 234.295V295.903H191.904C193.072 295.903 194.005 294.969 194.005 293.802V236.396C194.005 235.229 193.072 234.295 191.904 234.295H184.457Z" fill="#82BFAB"/>
<path d="M258.298 236.396V293.802C258.298 294.969 259.231 295.903 260.399 295.903H267.846V234.295H260.399C259.231 234.295 258.298 235.229 258.298 236.396Z" fill="#82BFAB"/>
</svg>
