<svg width="340" height="335" viewBox="0 0 340 335" fill="none" xmlns="http://www.w3.org/2000/svg">
<rect y="0.316895" width="340" height="334" rx="23" fill="#F7FFFD"/>
<mask id="mask0_41_18" style="mask-type:alpha" maskUnits="userSpaceOnUse" x="0" y="0" width="337" height="331">
<rect width="337" height="330.229" rx="23" fill="#D9D9D9"/>
</mask>
<g mask="url(#mask0_41_18)">
<path d="M242.664 227.342C354.044 102.016 420.301 128.297 460.241 168.628L438.657 350.314L-108.524 367.268L-128.086 234.888C-37.0889 292.275 144.537 337.755 242.664 227.342Z" fill="#CDFFF6"/>
</g>
<path d="M56.192 79.7489C54.224 79.7489 52.388 79.4249 50.684 78.7769C49.004 78.1289 47.54 77.2169 46.292 76.0409C45.068 74.8649 44.108 73.4849 43.412 71.9009C42.74 70.3169 42.404 68.5889 42.404 66.7169C42.404 64.8449 42.74 63.1169 43.412 61.5329C44.108 59.9489 45.08 58.5689 46.328 57.3929C47.576 56.2169 49.04 55.3049 50.72 54.6569C52.4 54.0089 54.224 53.6849 56.192 53.6849C58.184 53.6849 60.008 54.0089 61.664 54.6569C63.344 55.3049 64.796 56.2169 66.02 57.3929C67.268 58.5449 68.24 59.9129 68.936 61.4969C69.632 63.0809 69.98 64.8209 69.98 66.7169C69.98 68.5889 69.632 70.3289 68.936 71.9369C68.24 73.5209 67.268 74.9009 66.02 76.0769C64.796 77.2289 63.344 78.1289 61.664 78.7769C60.008 79.4249 58.184 79.7489 56.192 79.7489ZM64.436 85.1129C63.452 85.1129 62.516 85.0049 61.628 84.7889C60.764 84.5729 59.9 84.2249 59.036 83.7449C58.196 83.2649 57.308 82.6169 56.372 81.8009C55.46 80.9849 54.464 79.9769 53.384 78.7769L59.504 77.2289C60.152 78.1169 60.752 78.8249 61.304 79.3529C61.856 79.8809 62.384 80.2529 62.888 80.4689C63.416 80.6849 63.968 80.7929 64.544 80.7929C66.08 80.7929 67.448 80.1689 68.648 78.9209L71.24 82.0169C69.536 84.0809 67.268 85.1129 64.436 85.1129ZM56.192 74.7809C57.32 74.7809 58.352 74.5889 59.288 74.2049C60.248 73.8209 61.088 73.2689 61.808 72.5489C62.528 71.8289 63.08 70.9769 63.464 69.9929C63.872 68.9849 64.076 67.8929 64.076 66.7169C64.076 65.5169 63.872 64.4249 63.464 63.4409C63.08 62.4569 62.528 61.6049 61.808 60.8849C61.088 60.1649 60.248 59.6129 59.288 59.2289C58.352 58.8449 57.32 58.6529 56.192 58.6529C55.064 58.6529 54.02 58.8449 53.06 59.2289C52.1 59.6129 51.26 60.1649 50.54 60.8849C49.844 61.6049 49.292 62.4569 48.884 63.4409C48.5 64.4249 48.308 65.5169 48.308 66.7169C48.308 67.8929 48.5 68.9849 48.884 69.9929C49.292 70.9769 49.844 71.8289 50.54 72.5489C51.26 73.2689 52.1 73.8209 53.06 74.2049C54.02 74.5889 55.064 74.7809 56.192 74.7809ZM82.139 79.6049C80.531 79.6049 79.091 79.2929 77.819 78.6689C76.571 78.0449 75.599 77.0969 74.903 75.8249C74.207 74.5289 73.859 72.8849 73.859 70.8929V59.9489H79.475V70.0649C79.475 71.6729 79.811 72.8609 80.483 73.6289C81.179 74.3729 82.151 74.7449 83.399 74.7449C84.263 74.7449 85.031 74.5649 85.703 74.2049C86.375 73.8209 86.903 73.2449 87.287 72.4769C87.671 71.6849 87.863 70.7009 87.863 69.5249V59.9489H93.479V79.3169H88.151V73.9889L89.123 75.5369C88.475 76.8809 87.515 77.9009 86.243 78.5969C84.995 79.2689 83.627 79.6049 82.139 79.6049ZM98.6818 79.3169V59.9489H104.298V79.3169H98.6818ZM101.49 57.2489C100.458 57.2489 99.6178 56.9489 98.9698 56.3489C98.3218 55.7489 97.9978 55.0049 97.9978 54.1169C97.9978 53.2289 98.3218 52.4849 98.9698 51.8849C99.6178 51.2849 100.458 50.9849 101.49 50.9849C102.522 50.9849 103.362 51.2729 104.01 51.8489C104.658 52.4009 104.982 53.1209 104.982 54.0089C104.982 54.9449 104.658 55.7249 104.01 56.3489C103.386 56.9489 102.546 57.2489 101.49 57.2489ZM108.178 79.3169V75.9329L119.626 62.3969L120.598 64.2689H108.43V59.9489H125.134V63.3329L113.686 76.8689L112.678 74.9969H125.458V79.3169H108.178Z" fill="#004B40"/>
<rect x="186.849" y="163.277" width="112.302" height="137.354" rx="7" fill="#0B4F47" fill-opacity="0.11"/>
<rect x="187.713" y="159.822" width="110.574" height="137.354" rx="7" fill="#0B4F47"/>
<rect x="187.713" y="154.639" width="110.574" height="137.354" rx="7" fill="#406F6A"/>
<rect x="193.76" y="163.277" width="97.6161" height="118.349" fill="#FBF9EF"/>
<path d="M211.037 155C211.037 150.029 215.067 146 220.037 146H265.099C270.07 146 274.099 150.029 274.099 155V166.733H211.037V155Z" fill="#006754"/>
<rect x="211.037" y="157.23" width="63.0617" height="9.50245" fill="#1B9E86"/>
<rect x="207.582" y="184.874" width="70.8364" height="1.72772" rx="0.863859" fill="#D9D9D9"/>
<rect x="223.131" y="208.198" width="55.287" height="1.72772" rx="0.863859" fill="#D9D9D9"/>
<rect x="223.131" y="223.747" width="55.287" height="1.72772" rx="0.863859" fill="#D9D9D9"/>
<rect x="223.131" y="239.297" width="55.287" height="1.72772" rx="0.863859" fill="#D9D9D9"/>
<rect x="223.131" y="254.846" width="55.287" height="1.72772" rx="0.863859" fill="#D9D9D9"/>
<rect x="207.582" y="188.329" width="70.8364" height="1.72772" rx="0.863859" fill="#D9D9D9"/>
<rect x="207.582" y="191.785" width="25.0519" height="1.72772" rx="0.863859" fill="#D9D9D9"/>
<rect x="207.582" y="205.606" width="6.04701" height="6.04701" rx="1" fill="#D9D9D9"/>
<rect x="207.582" y="221.156" width="6.04701" height="6.04701" rx="1" fill="#D9D9D9"/>
<rect x="207.582" y="236.705" width="6.04701" height="6.04701" rx="1" fill="#D9D9D9"/>
<rect x="207.582" y="252.255" width="6.04701" height="6.04701" rx="1" fill="#D9D9D9"/>
<path d="M212.765 207.334L209.795 209.926L208.446 208.748" stroke="#406F6A" stroke-linecap="round" stroke-linejoin="round"/>
<path d="M212.765 222.883L209.795 225.475L208.446 224.297" stroke="#406F6A" stroke-linecap="round" stroke-linejoin="round"/>
<path d="M212.765 238.433L209.795 241.025L208.446 239.847" stroke="#406F6A" stroke-linecap="round" stroke-linejoin="round"/>
<path d="M212.765 253.982L209.795 256.574L208.446 255.396" stroke="#406F6A" stroke-linecap="round" stroke-linejoin="round"/>
</svg>
