<svg width="340" height="335" viewBox="0 0 340 335" fill="none" xmlns="http://www.w3.org/2000/svg">
<rect y="0.316895" width="340" height="334" rx="23" fill="#FFF9F3"/>
<mask id="mask0_41_13" style="mask-type:alpha" maskUnits="userSpaceOnUse" x="0" y="0" width="337" height="331">
<rect width="337" height="330.229" rx="23" fill="#D9D9D9"/>
</mask>
<g mask="url(#mask0_41_13)">
<path d="M242.664 227.342C354.044 102.016 420.301 128.297 460.241 168.628L438.657 350.314L-108.524 367.268L-128.086 234.888C-37.0889 292.275 144.537 337.755 242.664 227.342Z" fill="#FFE8D5"/>
</g>
<path d="M56.192 79.7489C54.224 79.7489 52.388 79.4249 50.684 78.7769C49.004 78.1289 47.54 77.2169 46.292 76.0409C45.068 74.8649 44.108 73.4849 43.412 71.9009C42.74 70.3169 42.404 68.5889 42.404 66.7169C42.404 64.8449 42.74 63.1169 43.412 61.5329C44.108 59.9489 45.08 58.5689 46.328 57.3929C47.576 56.2169 49.04 55.3049 50.72 54.6569C52.4 54.0089 54.224 53.6849 56.192 53.6849C58.184 53.6849 60.008 54.0089 61.664 54.6569C63.344 55.3049 64.796 56.2169 66.02 57.3929C67.268 58.5449 68.24 59.9129 68.936 61.4969C69.632 63.0809 69.98 64.8209 69.98 66.7169C69.98 68.5889 69.632 70.3289 68.936 71.9369C68.24 73.5209 67.268 74.9009 66.02 76.0769C64.796 77.2289 63.344 78.1289 61.664 78.7769C60.008 79.4249 58.184 79.7489 56.192 79.7489ZM64.436 85.1129C63.452 85.1129 62.516 85.0049 61.628 84.7889C60.764 84.5729 59.9 84.2249 59.036 83.7449C58.196 83.2649 57.308 82.6169 56.372 81.8009C55.46 80.9849 54.464 79.9769 53.384 78.7769L59.504 77.2289C60.152 78.1169 60.752 78.8249 61.304 79.3529C61.856 79.8809 62.384 80.2529 62.888 80.4689C63.416 80.6849 63.968 80.7929 64.544 80.7929C66.08 80.7929 67.448 80.1689 68.648 78.9209L71.24 82.0169C69.536 84.0809 67.268 85.1129 64.436 85.1129ZM56.192 74.7809C57.32 74.7809 58.352 74.5889 59.288 74.2049C60.248 73.8209 61.088 73.2689 61.808 72.5489C62.528 71.8289 63.08 70.9769 63.464 69.9929C63.872 68.9849 64.076 67.8929 64.076 66.7169C64.076 65.5169 63.872 64.4249 63.464 63.4409C63.08 62.4569 62.528 61.6049 61.808 60.8849C61.088 60.1649 60.248 59.6129 59.288 59.2289C58.352 58.8449 57.32 58.6529 56.192 58.6529C55.064 58.6529 54.02 58.8449 53.06 59.2289C52.1 59.6129 51.26 60.1649 50.54 60.8849C49.844 61.6049 49.292 62.4569 48.884 63.4409C48.5 64.4249 48.308 65.5169 48.308 66.7169C48.308 67.8929 48.5 68.9849 48.884 69.9929C49.292 70.9769 49.844 71.8289 50.54 72.5489C51.26 73.2689 52.1 73.8209 53.06 74.2049C54.02 74.5889 55.064 74.7809 56.192 74.7809ZM82.139 79.6049C80.531 79.6049 79.091 79.2929 77.819 78.6689C76.571 78.0449 75.599 77.0969 74.903 75.8249C74.207 74.5289 73.859 72.8849 73.859 70.8929V59.9489H79.475V70.0649C79.475 71.6729 79.811 72.8609 80.483 73.6289C81.179 74.3729 82.151 74.7449 83.399 74.7449C84.263 74.7449 85.031 74.5649 85.703 74.2049C86.375 73.8209 86.903 73.2449 87.287 72.4769C87.671 71.6849 87.863 70.7009 87.863 69.5249V59.9489H93.479V79.3169H88.151V73.9889L89.123 75.5369C88.475 76.8809 87.515 77.9009 86.243 78.5969C84.995 79.2689 83.627 79.6049 82.139 79.6049ZM98.6818 79.3169V59.9489H104.046V65.4209L103.29 63.8369C103.866 62.4689 104.79 61.4369 106.062 60.7409C107.334 60.0209 108.882 59.6609 110.706 59.6609V64.8449C110.466 64.8209 110.25 64.8089 110.058 64.8089C109.866 64.7849 109.662 64.7729 109.446 64.7729C107.91 64.7729 106.662 65.2169 105.702 66.1049C104.766 66.9689 104.298 68.3249 104.298 70.1729V79.3169H98.6818ZM124.66 79.3169V75.5369L124.3 74.7089V67.9409C124.3 66.7409 123.928 65.8049 123.184 65.1329C122.464 64.4609 121.348 64.1249 119.836 64.1249C118.804 64.1249 117.784 64.2929 116.776 64.6289C115.792 64.9409 114.952 65.3729 114.256 65.9249L112.24 62.0009C113.296 61.2569 114.568 60.6809 116.056 60.2729C117.544 59.8649 119.056 59.6609 120.592 59.6609C123.544 59.6609 125.836 60.3569 127.468 61.7489C129.1 63.1409 129.916 65.3129 129.916 68.2649V79.3169H124.66ZM118.756 79.6049C117.244 79.6049 115.948 79.3529 114.868 78.8489C113.788 78.3209 112.96 77.6129 112.384 76.7249C111.808 75.8369 111.52 74.8409 111.52 73.7369C111.52 72.5849 111.796 71.5769 112.348 70.7129C112.924 69.8489 113.824 69.1769 115.048 68.6969C116.272 68.1929 117.868 67.9409 119.836 67.9409H124.984V71.2169H120.448C119.128 71.2169 118.216 71.4329 117.712 71.8649C117.232 72.2969 116.992 72.8369 116.992 73.4849C116.992 74.2049 117.268 74.7809 117.82 75.2129C118.396 75.6209 119.176 75.8249 120.16 75.8249C121.096 75.8249 121.936 75.6089 122.68 75.1769C123.424 74.7209 123.964 74.0609 124.3 73.1969L125.164 75.7889C124.756 77.0369 124.012 77.9849 122.932 78.6329C121.852 79.2809 120.46 79.6049 118.756 79.6049ZM146.77 59.6609C148.306 59.6609 149.674 59.9729 150.874 60.5969C152.098 61.1969 153.058 62.1329 153.754 63.4049C154.45 64.6529 154.798 66.2609 154.798 68.2289V79.3169H149.182V69.0929C149.182 67.5329 148.834 66.3809 148.138 65.6369C147.466 64.8929 146.506 64.5209 145.258 64.5209C144.37 64.5209 143.566 64.7129 142.846 65.0969C142.15 65.4569 141.598 66.0209 141.19 66.7889C140.806 67.5569 140.614 68.5409 140.614 69.7409V79.3169H134.998V59.9489H140.362V65.3129L139.354 63.6929C140.05 62.3969 141.046 61.4009 142.342 60.7049C143.638 60.0089 145.114 59.6609 146.77 59.6609Z" fill="#004B40"/>
<path d="M274.758 181.08L205.644 204.703L136.459 181.08L103.374 229.166L205.644 264.144L307.843 229.166L274.758 181.08Z" fill="#006754"/>
<path opacity="0.45" d="M115.431 227.203L200.246 259.658L171.087 230.778C171.087 230.778 123.211 219.212 115.431 227.203Z" fill="#004B40"/>
<path opacity="0.45" d="M295.857 227.203L211.041 259.658L240.201 230.778C240.131 230.778 288.006 219.212 295.857 227.203Z" fill="#004B40"/>
<path d="M205.644 264.144L103.374 229.166V233.722L205.644 268.7L307.843 233.722V229.166L205.644 264.144Z" fill="#A85000"/>
<path d="M151.179 285.172L163.026 254.12L201.158 267.158L151.179 285.172Z" fill="#773A08"/>
<path opacity="0.45" d="M154.474 276.2L201.157 267.158L163.025 254.12L154.474 276.2Z" fill="#773A08"/>
<path d="M205.644 265.546L151.179 285.172L155.245 289.448L205.644 271.504L255.972 289.448L260.108 285.172L205.644 265.546Z" fill="#BDF8D4"/>
<path d="M260.108 285.172L248.192 254.12L210.06 267.158L260.108 285.172Z" fill="#773A08"/>
<path opacity="0.45" d="M256.743 276.2L210.06 267.158L248.192 254.12L256.743 276.2Z" fill="#773A08"/>
<path d="M205.644 271.503C207.695 271.503 209.359 269.84 209.359 267.788C209.359 265.737 207.695 264.073 205.644 264.073C203.592 264.073 201.929 265.737 201.929 267.788C201.929 269.84 203.592 271.503 205.644 271.503Z" fill="white" fill-opacity="0.5"/>
<path d="M271.814 181.08L205.644 214.025L139.473 181.08C136.459 185.076 112.206 225.521 112.206 225.521C112.487 225.521 112.697 225.591 112.977 225.591C173.82 231.689 190.713 250.825 196.321 255.452C201.928 260.148 205.714 259.657 205.714 259.657C205.714 259.657 209.499 260.148 215.106 255.452C220.714 250.825 237.607 231.689 298.45 225.591C298.73 225.591 298.941 225.521 299.221 225.521C299.081 225.521 274.758 185.146 271.814 181.08Z" fill="#F5B304"/>
<path d="M299.081 225.521C298.801 225.521 298.59 225.591 298.31 225.591C237.467 231.689 220.574 250.825 214.966 255.452C209.359 260.148 205.574 259.657 205.574 259.657C205.574 259.657 201.788 260.148 196.181 255.452C190.573 250.825 173.68 231.689 112.837 225.591C112.557 225.591 112.346 225.521 112.066 225.521C111.575 226.292 112.066 226.853 112.066 226.853C173.54 232.811 189.872 252.017 195.48 256.713C201.087 261.34 205.503 260.989 205.503 260.989C205.503 260.989 209.919 261.34 215.527 256.713C221.135 252.087 237.467 232.881 298.941 226.853C299.081 226.853 299.572 226.292 299.081 225.521Z" fill="#87D1A4"/>
<path d="M269.29 177.225C235.434 169.094 205.574 196.922 205.574 196.922C205.574 196.922 175.713 169.094 141.857 177.225C141.857 177.225 132.254 191.945 119.006 216.969C119.006 216.969 185.666 224.469 205.574 252.438C225.481 224.469 292.142 216.969 292.142 216.969C278.894 191.945 269.29 177.225 269.29 177.225Z" fill="#FBF9EF"/>
<path d="M292.142 216.969C292.142 216.969 225.481 224.469 205.574 252.438C185.737 224.469 119.076 216.969 119.076 216.969C119.076 216.969 119.076 219.212 115.361 223.628C115.361 223.628 175.853 227.974 197.863 253.068C203.05 258.956 205.574 258.255 205.574 258.255C205.574 258.255 208.167 258.956 213.284 253.068C235.224 227.974 295.787 223.628 295.787 223.628C292.142 219.142 292.142 216.969 292.142 216.969Z" fill="#BDF8D4"/>
<path d="M265.505 180.169C265.505 180.169 240.201 173.72 205.573 200.567C171.016 173.79 145.642 180.169 145.642 180.169L128.538 213.394C180.549 216.969 205.573 243.255 205.573 243.255C205.573 243.255 230.597 216.969 282.608 213.394L265.505 180.169ZM205.643 240.101C205.643 240.101 182.232 216.128 132.604 211.432L146.973 181.571C146.973 181.571 171.857 176.734 205.643 202.109C239.43 176.734 264.313 181.571 264.313 181.571L278.683 211.432C229.055 216.128 205.643 240.101 205.643 240.101Z" fill="#006754"/>
<path opacity="0.2" d="M212.022 225.587C221.368 218.694 250.575 203.441 270.201 205.544" stroke="#BDF8D4" stroke-width="3" stroke-linecap="round"/>
<path opacity="0.2" d="M212.022 206.245C220.317 199.75 241.883 187.025 261.79 188.082" stroke="#BDF8D4" stroke-width="3" stroke-linecap="round"/>
<path opacity="0.2" d="M212.022 216.058C221.018 209.064 244.406 195.36 265.996 196.498" stroke="#BDF8D4" stroke-width="3" stroke-linecap="round"/>
<path opacity="0.2" d="M200.106 225.587C190.76 218.694 161.553 203.441 141.927 205.544" stroke="#BDF8D4" stroke-width="3" stroke-linecap="round"/>
<path opacity="0.2" d="M200.106 206.245C191.811 199.75 170.245 187.025 150.338 188.082" stroke="#BDF8D4" stroke-width="3" stroke-linecap="round"/>
<path opacity="0.2" d="M200.106 216.058C191.11 209.064 167.722 195.36 146.132 196.498" stroke="#BDF8D4" stroke-width="3" stroke-linecap="round"/>
<path d="M205.644 196.922C205.644 196.922 206.344 194.469 207.676 195.169C207.676 195.169 206.835 234.914 208.237 250.405C208.588 254.26 211.952 259.517 213.284 261.48H211.532L211.041 263.092C211.041 263.092 205.854 254.33 205.644 250.895C204.592 235.474 205.153 200.637 205.644 196.922Z" fill="#BC8F7B"/>
</svg>
